<?xml version="1.0" encoding="UTF-8"?>
<svg id="_레이어_2" data-name="레이어 2" xmlns="http://www.w3.org/2000/svg" viewBox="0 0 66.96 66.96">
  <defs>
    <style>
      .cls-1 {
        fill: #fff;
      }

      .cls-1, .cls-2 {
        stroke-width: 0px;
      }

      .cls-2 {
        fill: #aaa;
      }
    </style>
  </defs>
  <g id="_레이어_1-2" data-name="레이어 1">
    <g>
      <circle class="cls-2" cx="33.48" cy="33.48" r="33.48"/>
      <g>
        <path class="cls-1" d="m15.46,26.27c-3.49,0-4.23,1.59-4.23,1.59v-5.6h-3.83v17.27h3.83v-1.34s1.05,1.73,3.81,1.73c3.95,0,6.22-3.49,6.22-6.85s-2.3-6.82-5.79-6.82Zm-1.14,10.31c-1.84,0-3.32-1.55-3.32-3.47s1.49-3.47,3.32-3.47,3.32,1.55,3.32,3.47-1.49,3.47-3.32,3.47Z"/>
        <path class="cls-1" d="m21.71,25.3v-3.44c1.11,0,5.9.62,5.91,5.98,0,5.25,0,11.62,0,11.62h-3.78v-11.62s-.02-2.54-2.13-2.54Z"/>
        <path class="cls-1" d="m36.93,26.01c-3.82,0-6.91,3.17-6.91,7.08s3.1,7.08,6.91,7.08,6.91-3.17,6.91-7.08-3.1-7.08-6.91-7.08Zm0,10.46c-1.77,0-3.21-1.51-3.21-3.38s1.44-3.38,3.21-3.38,3.21,1.51,3.21,3.38-1.44,3.38-3.21,3.38Z"/>
        <path class="cls-1" d="m55.79,26.54v1.23c-1.07-1.03-2.49-1.66-4.03-1.66-3.37,0-6.1,2.97-6.1,6.63s2.73,6.63,6.1,6.63c1.55,0,2.96-.63,4.03-1.66v.45s.18,3.51-2.98,3.51v3.44c3.74,0,6.76-1.89,6.76-6.95v-11.62h-3.78Zm-3.11,9.36c-1.88,0-3.41-1.42-3.41-3.16s1.53-3.16,3.41-3.16,3.41,1.42,3.41,3.16-1.53,3.16-3.41,3.16Z"/>
      </g>
    </g>
  </g>
</svg>