<?xml version="1.0" encoding="UTF-8"?>
<svg id="_레이어_2" data-name="레이어 2" xmlns="http://www.w3.org/2000/svg" viewBox="0 0 1189.78 1190.93">
  <defs>
    <style>
      .cls-1 {
        fill: #ffee94;
        fill-rule: evenodd;
        stroke-width: 0px;
      }
    </style>
  </defs>
  <g id="Object">
    <path class="cls-1" d="m920.42,1092.41c-14.36,9.47-29.05,18.24-44.01,26.36l264.31-287.98c-6.83,15.6-14.31,30.93-22.49,46.05l-197.81,215.57Zm-134.01,65.96c-9.25,3.17-18.61,6.13-27.92,8.82l420.32-458.09c-1.88,9.58-4.03,19.1-6.4,28.57l-386,420.7Zm-95.87,24.32c-7.64,1.29-15.22,2.37-22.86,3.34l522.1-568.96c-.32,7.69-.75,15.39-1.34,23.08l-497.9,542.55Zm-80.8,7.96c-6.72.22-13.4.32-20.12.27l598.34-651.92c.59,6.62,1.02,13.34,1.4,20.01l-579.61,631.64Zm-71.6-2.1c-6.03-.54-12.05-1.18-18.08-1.88l657.62-716.64c1.24,5.92,2.37,11.89,3.44,17.86l-642.99,700.66Zm-64.88-9.41c-5.49-1.13-11.03-2.31-16.52-3.6l704.37-767.58c1.78,5.38,3.44,10.76,5,16.14l-692.86,755.05Zm-59.5-15.33c-5.06-1.56-10.17-3.23-15.22-4.95l740.95-807.39c2.15,4.9,4.25,9.79,6.29,14.69l-732.02,797.65Zm-54.93-20.23c-4.73-1.99-9.41-4.09-14.1-6.24l768.71-837.63c2.53,4.47,5,8.98,7.42,13.5l-762.04,830.36Zm-50.89-24.64c-4.36-2.42-8.72-4.84-13.07-7.37L1083.43,252.26c2.85,4.09,5.7,8.23,8.45,12.37l-783.94,854.3Zm-47.18-28.67c-4.09-2.74-8.12-5.54-12.16-8.39L1049.86,208.79c3.17,3.71,6.29,7.53,9.36,11.3l-798.46,870.17Zm-43.74-32.49c-3.77-3.07-7.48-6.24-11.19-9.41L1012.79,169.03c3.44,3.44,6.89,6.89,10.28,10.38L217.02,1057.77Zm-40.35-36.15c-3.5-3.44-6.94-6.89-10.28-10.33L972.39,132.93c3.77,3.07,7.48,6.19,11.19,9.36L176.67,1021.61Zm-37.07-39.76c-3.17-3.71-6.29-7.53-9.36-11.35L928.65,100.49c4.09,2.69,8.12,5.49,12.1,8.34L139.6,981.86Zm-33.57-43.52c-2.85-4.09-5.65-8.23-8.39-12.37L881.42,71.82c4.41,2.42,8.77,4.84,13.07,7.37L106.03,938.34Zm-29.91-47.45c-2.58-4.47-5-8.98-7.42-13.5L830.53,47.23c4.68,1.99,9.41,4.03,14.09,6.19L76.12,890.89Zm-26.04-51.81c-2.15-4.84-4.25-9.79-6.29-14.69L775.54,27.01c5.06,1.56,10.17,3.23,15.22,5L50.09,839.08Zm-21.63-56.54c-1.72-5.38-3.39-10.71-5-16.14L715.99,11.73c5.54,1.13,11.03,2.31,16.52,3.6L28.46,782.54Zm-16.52-62.08c-1.24-5.97-2.37-11.94-3.39-17.91L651.11,2.37c6.03.54,12.05,1.13,18.08,1.88L11.94,720.46Zm-10.22-69.02c-.59-6.67-1.02-13.34-1.4-20.01L579.45.32c6.67-.22,13.4-.32,20.07-.32L1.72,651.43Zm-1.72-78.17c.32-7.75.75-15.44,1.4-23.13L498.54,8.39c7.64-1.29,15.28-2.42,22.92-3.39L0,573.27Zm11.03-92.21c1.94-9.58,4.09-19.1,6.51-28.62L402.57,32.87c9.25-3.23,18.56-6.19,27.97-8.93L11.03,481.06Zm38.47-122.01c6.89-15.71,14.53-31.2,22.81-46.43l195.61-213.15c14.47-9.58,29.21-18.51,44.33-26.68L49.49,359.04Z"/>
  </g>
</svg>