<?xml version="1.0" encoding="utf-8"?>
<!-- Generator: Adobe Illustrator 27.9.4, SVG Export Plug-In . SVG Version: 9.03 Build 54784)  -->
<svg version="1.1" id="_레이어_2" xmlns="http://www.w3.org/2000/svg" xmlns:xlink="http://www.w3.org/1999/xlink" x="0px"
	 y="0px" viewBox="0 0 1189.8 1190.9" style="enable-background:new 0 0 1189.8 1190.9;" xml:space="preserve">
<style type="text/css">
	.st0{opacity:0.46;}
	.st1{fill-rule:evenodd;clip-rule:evenodd;fill:#EF7FBB;}
</style>
<g id="Object" class="st0">
	<path class="st1" d="M920.4,1092.4c-14.4,9.5-29,18.2-44,26.4l264.3-288c-6.8,15.6-14.3,30.9-22.5,46L920.4,1092.4z M786.4,1158.4
		c-9.2,3.2-18.6,6.1-27.9,8.8l420.3-458.1c-1.9,9.6-4,19.1-6.4,28.6L786.4,1158.4L786.4,1158.4z M690.5,1182.7
		c-7.6,1.3-15.2,2.4-22.9,3.3l522.1-569c-0.3,7.7-0.8,15.4-1.3,23.1L690.5,1182.7L690.5,1182.7z M609.7,1190.6
		c-6.7,0.2-13.4,0.3-20.1,0.3L1188,539c0.6,6.6,1,13.3,1.4,20L609.7,1190.6L609.7,1190.6z M538.1,1188.5c-6-0.5-12-1.2-18.1-1.9
		L1177.7,470c1.2,5.9,2.4,11.9,3.4,17.9L538.1,1188.5L538.1,1188.5z M473.3,1179.1c-5.5-1.1-11-2.3-16.5-3.6L1161.1,408
		c1.8,5.4,3.4,10.8,5,16.1L473.3,1179.1L473.3,1179.1z M413.8,1163.8c-5.1-1.6-10.2-3.2-15.2-4.9l740.9-807.4
		c2.2,4.9,4.2,9.8,6.3,14.7L413.8,1163.8L413.8,1163.8z M358.8,1143.6c-4.7-2-9.4-4.1-14.1-6.2l768.7-837.6c2.5,4.5,5,9,7.4,13.5
		L358.8,1143.6L358.8,1143.6z M307.9,1118.9c-4.4-2.4-8.7-4.8-13.1-7.4l788.6-859.3c2.8,4.1,5.7,8.2,8.4,12.4L307.9,1118.9
		L307.9,1118.9z M260.8,1090.3c-4.1-2.7-8.1-5.5-12.2-8.4l801.3-873.1c3.2,3.7,6.3,7.5,9.4,11.3L260.8,1090.3L260.8,1090.3z
		 M217,1057.8c-3.8-3.1-7.5-6.2-11.2-9.4l807-879.3c3.4,3.4,6.9,6.9,10.3,10.4L217,1057.8L217,1057.8z M176.7,1021.6
		c-3.5-3.4-6.9-6.9-10.3-10.3l806-878.4c3.8,3.1,7.5,6.2,11.2,9.4L176.7,1021.6L176.7,1021.6z M139.6,981.9
		c-3.2-3.7-6.3-7.5-9.4-11.3l798.4-870c4.1,2.7,8.1,5.5,12.1,8.3L139.6,981.9L139.6,981.9z M106,938.3c-2.8-4.1-5.7-8.2-8.4-12.4
		L881.4,71.8c4.4,2.4,8.8,4.8,13.1,7.4L106,938.3L106,938.3z M76.1,890.9c-2.6-4.5-5-9-7.4-13.5L830.5,47.2c4.7,2,9.4,4,14.1,6.2
		L76.1,890.9L76.1,890.9z M50.1,839.1c-2.2-4.8-4.2-9.8-6.3-14.7L775.5,27c5.1,1.6,10.2,3.2,15.2,5L50.1,839.1L50.1,839.1z
		 M28.5,782.5c-1.7-5.4-3.4-10.7-5-16.1L716,11.7c5.5,1.1,11,2.3,16.5,3.6L28.5,782.5L28.5,782.5z M11.9,720.5
		c-1.2-6-2.4-11.9-3.4-17.9L651.1,2.4c6,0.5,12,1.1,18.1,1.9L11.9,720.5L11.9,720.5z M1.7,651.4c-0.6-6.7-1-13.3-1.4-20L579.5,0.3
		c6.7-0.2,13.4-0.3,20.1-0.3L1.7,651.4L1.7,651.4z M0,573.3c0.3-7.8,0.8-15.4,1.4-23.1L498.5,8.4c7.6-1.3,15.3-2.4,22.9-3.4L0,573.3
		L0,573.3z M11,481.1c1.9-9.6,4.1-19.1,6.5-28.6l385-419.6c9.2-3.2,18.6-6.2,28-8.9L11,481.1L11,481.1z M49.5,359.1
		c6.9-15.7,14.5-31.2,22.8-46.4L267.9,99.5c14.5-9.6,29.2-18.5,44.3-26.7L49.5,359.1L49.5,359.1z"/>
</g>
</svg>
