<?xml version="1.0" encoding="UTF-8"?>
<svg id="_레이어_2" data-name="레이어 2" xmlns="http://www.w3.org/2000/svg" viewBox="0 0 154.4 179.6">
  <defs>
    <style>
      .cls-1 {
        fill: #00a74d;
      }

      .cls-1, .cls-2, .cls-3 {
        stroke-width: 0px;
      }

      .cls-2 {
        fill: #fff;
      }

      .cls-3 {
        fill: #fabe00;
      }
    </style>
  </defs>
  <g id="_레이어_2-2" data-name=" 레이어 2">
    <g>
      <path class="cls-1" d="m0,102.5c0,42.6,34.5,77.1,77.2,77.1s77.2-34.5,77.2-77.2S119.9,25.3,77.2,25.3V0l-44.3,38.9C11.9,56.1,0,78.2,0,102.5"/>
      <g>
        <path class="cls-2" d="m55.9,125.4c-1.3,0-2.5-.2-3.6-.6s-2-1-2.8-1.7-1.4-1.7-1.9-2.7c-.5-1.1-.7-2.2-.7-3.5s.2-2.4.7-3.5,1.1-1.9,1.9-2.7,1.8-1.3,2.8-1.7,2.3-.6,3.6-.6,2.5.2,3.7.7c1.1.4,2.1,1,2.9,1.8h6.8v-2.9h4.9v18.7h-4.9v-3.8h-6.7c-.8.8-1.8,1.4-2.9,1.8s-2.4.7-3.8.7h0Zm6.7,15.9c-1.8,0-3.5-.2-5-.5s-2.8-.8-3.8-1.4c-1-.6-1.9-1.4-2.4-2.3-.6-.9-.8-1.9-.8-3.1s.3-2.2.8-3.1c.6-.9,1.4-1.6,2.4-2.3,1-.6,2.3-1.1,3.8-1.4s3.2-.5,5-.5,3.5.2,5,.5,2.8.8,3.8,1.4c1.1.6,1.9,1.4,2.4,2.3.6.9.8,1.9.8,3.1s-.3,2.2-.8,3.1c-.6.9-1.4,1.6-2.4,2.3-1.1.6-2.3,1.1-3.8,1.4s-3.1.5-5,.5Zm-6.7-29c-1.3,0-2.3.4-3.1,1.2-.7.8-1.1,1.9-1.1,3.3s.4,2.5,1.1,3.3,1.7,1.2,3.1,1.2,2.3-.4,3.1-1.2c.7-.8,1.1-1.9,1.1-3.3s-.4-2.5-1.1-3.3-1.8-1.2-3.1-1.2Zm6.7,18.6c-2.4,0-4.2.3-5.3.8-1.2.6-1.7,1.3-1.7,2.4s.6,1.8,1.7,2.4,2.9.8,5.3.8,4.2-.3,5.3-.8c1.2-.6,1.7-1.3,1.7-2.4s-.6-1.8-1.7-2.4-2.9-.8-5.3-.8Zm2.3-14.1c0,.4,0,.7-.1,1.1-.1.3-.1.7-.2,1h4.5v-4.2h-4.5c.1.3.1.7.2,1s.1.7.1,1.1Z"/>
        <path class="cls-2" d="m88.1,134.9c-2.7,0-4.9-1.1-6.5-3.3s-2.4-5.4-2.4-9.7.8-7.5,2.4-9.7,3.8-3.3,6.5-3.3c2.4,0,4.4.9,5.9,2.6s2.4,4.3,2.8,7.6h4.1v-11.1h4.9v32.5h-4.9v-17.2h-4c-.2,3.8-1.1,6.7-2.6,8.7s-3.7,2.9-6.2,2.9h0Zm0-21.8c-1.3,0-2.2.7-2.9,2.2-.7,1.4-1.1,3.7-1.1,6.7s.3,5.2,1.1,6.7c.7,1.4,1.7,2.2,2.9,2.2s2.2-.7,2.9-2.2c.7-1.4,1.1-3.7,1.1-6.7s-.3-5.2-1.1-6.7c-.7-1.5-1.7-2.2-2.9-2.2Z"/>
      </g>
      <g>
        <path class="cls-3" d="m52.82,96.78h-16.78v-25.79h16.71v3.89h-12.14v6.68h10.85v3.89h-10.85v7.44h12.21v3.89Z"/>
        <path class="cls-3" d="m61.25,96.75h-4.5v-26.77h4.5v26.77Z"/>
        <path class="cls-3" d="m72.23,72.56c0,.8-.27,1.48-.82,2.06-.54.58-1.25.87-2.11.87s-1.57-.29-2.12-.87c-.55-.58-.82-1.27-.82-2.06s.27-1.48.82-2.06c.55-.58,1.25-.87,2.12-.87s1.57.29,2.11.87c.55.58.82,1.27.82,2.06Zm-.68,24.22h-4.5v-19.17h4.5v19.17Z"/>
        <path class="cls-3" d="m82.43,96.78h-4.57v-25.79h4.57v25.79Z"/>
        <path class="cls-3" d="m105.01,77.61l-7.67,19.17h-3.48l-7.67-19.17h4.74l3.99,11.08.51,1.71h.34l.51-1.71,3.99-11.08h4.74Z"/>
        <path class="cls-3" d="m124.52,77.61l-8.46,21.8c-.27.68-.56,1.32-.87,1.93-.31.6-.68,1.13-1.11,1.59s-.94.81-1.53,1.07c-.59.26-1.31.39-2.15.39-.46,0-.92-.05-1.4-.14s-.92-.23-1.33-.41l.48-3.82c.36.21.7.35,1.01.43.31.08.58.12.84.12.64,0,1.13-.22,1.48-.67s.67-1.04.94-1.79l.65-1.81-7.37-18.69h4.91l4.47,13,4.64-13h4.81Z"/>
      </g>
    </g>
  </g>
</svg>