<?xml version="1.0" encoding="UTF-8"?>
<svg id="_레이어_2" data-name="레이어 2" xmlns="http://www.w3.org/2000/svg" viewBox="0 0 81.5 109.34">
  <defs>
    <style>
      .cls-1 {
        fill: #ab71ff;
        stroke-width: 0px;
      }
    </style>
  </defs>
  <g id="_레이어_1-2" data-name="레이어 1">
    <path class="cls-1" d="m65.55,109.34l-12.11-22.04-12.11-22.04H15.23v44.09H0V0h38.29c12.83,0,22.55,3.15,29.06,8.81s9.81,13.81,9.81,23.82c0,7.32-1.78,13.67-5.26,18.76s-8.66,8.94-15.48,11.26c4.21,7.47,8.41,14.94,12.6,22.41s8.36,14.94,12.49,22.41v1.88h-15.95Zm-27.26-57.14c8.12,0,14.03-2.07,17.91-5.55s5.73-8.38,5.73-14.03-1.85-10.48-5.73-13.98-9.79-5.6-17.91-5.6H15.23v39.16h23.06Z"/>
  </g>
</svg>