<?xml version="1.0" encoding="UTF-8"?>
<svg id="_레이어_2" data-name="레이어 2" xmlns="http://www.w3.org/2000/svg" viewBox="0 0 87.45 112.1">
  <defs>
    <style>
      .cls-1 {
        fill: #4aeaff;
        stroke-width: 0px;
      }
    </style>
  </defs>
  <g id="_레이어_1-2" data-name="레이어 1">
    <path class="cls-1" d="m72.22,66.13h-24.8v-13.05h40.03v40.03c-3.05,5.08-7.9,9.82-14.68,13.31s-15.48,5.69-26.21,5.69c-14.21,0-25.85-5.08-33.93-14.63S0,73.89,0,55.98,4.53,24.15,12.62,14.61,32.34,0,46.55,0c10.37,0,19.43,2.57,26.48,7.69s12.09,12.76,14.41,22.91h-15.23c-1.23-5.58-4.17-9.97-8.54-12.96s-10.17-4.59-17.13-4.59c-9.79,0-17.62,3.95-23,11.29s-8.32,18.07-8.32,31.63,2.94,24.33,8.32,31.7,13.21,11.37,23,11.37c7.18,0,12.69-1.02,16.86-2.76s7-4.21,8.81-7.11v-23.06Z"/>
  </g>
</svg>