<?xml version="1.0" encoding="UTF-8"?>
<svg id="_레이어_2" data-name="레이어 2" xmlns="http://www.w3.org/2000/svg" viewBox="0 0 92.09 112.25">
  <defs>
    <style>
      .cls-1 {
        fill: #2fb;
        stroke-width: 0px;
      }
    </style>
  </defs>
  <g id="_레이어_1-2" data-name="레이어 1">
    <path class="cls-1" d="m46.12,0c14.43,0,25.92,5.18,33.81,14.79s12.16,23.64,12.16,41.33-4.28,31.8-12.16,41.39-19.38,14.74-33.81,14.74-26.03-5.15-33.93-14.74S0,73.89,0,56.12,4.28,24.4,12.18,14.79,31.61,0,46.12,0Zm0,13.05c-10.22,0-17.95,4.06-23.11,11.47s-7.78,18.18-7.78,31.6,2.61,24.18,7.78,31.6,12.89,11.47,23.11,11.47,17.84-4.06,22.99-11.47,7.76-18.18,7.76-31.6-2.61-24.18-7.76-31.6-12.83-11.47-22.99-11.47Z"/>
  </g>
</svg>