<?xml version="1.0" encoding="UTF-8"?>
<svg id="_레이어_2" data-name="레이어 2" xmlns="http://www.w3.org/2000/svg" viewBox="0 0 134.14 109.34">
  <defs>
    <style>
      .cls-1 {
        fill: #2fb;
        stroke-width: 0px;
      }
    </style>
  </defs>
  <g id="_레이어_1-2" data-name="레이어 1">
    <path class="cls-1" d="m91.22,109.34l-10.51-37.34-10.51-37.34-1.31-5.8-1.31-5.8h-1.02l-1.31,5.8-1.31,5.8-10.59,37.34-10.59,37.34h-14.65l-14.07-54.67L0,0h15.52l8.77,36.4,8.77,36.4,1.38,6.24,1.38,6.24h1.02l1.52-6.24,1.52-6.24,10.08-36.4L60.04,0h14.07l10.08,36.4,10.08,36.4,1.52,6.24,1.52,6.24h1.02l1.38-6.24,1.38-6.24,8.77-36.4L118.63,0h15.52l-14.14,54.67-14.14,54.67h-14.65Z"/>
  </g>
</svg>