<?xml version="1.0" encoding="UTF-8"?>
<svg id="_레이어_2" data-name="레이어 2" xmlns="http://www.w3.org/2000/svg" viewBox="0 0 92.09 130.23">
  <defs>
    <style>
      .cls-1 {
        fill: #2fb;
        stroke-width: 0px;
      }
    </style>
  </defs>
  <g id="_레이어_1-2" data-name="레이어 1">
    <path class="cls-1" d="m79.33,130.23c-3.19-3.41-6.2-6.74-9.32-10.04s-6.34-6.56-9.97-9.83c-2.18.65-4.42,1.12-6.74,1.43s-4.71.45-7.18.45c-14.5,0-26.03-5.15-33.93-14.74S0,73.89,0,56.12,4.28,24.4,12.18,14.79,31.61,0,46.12,0s25.92,5.18,33.81,14.79,12.16,23.64,12.16,41.33c0,11.38-1.74,21.21-5.06,29.29s-8.21,14.43-14.52,18.85c2.83,2.46,5.8,5.15,8.85,8.07s6.16,6.07,9.28,9.48l-5.66,4.21-5.66,4.21ZM46.12,13.05c-10.22,0-17.95,4.06-23.11,11.47s-7.78,18.18-7.78,31.6,2.61,24.18,7.78,31.6,12.89,11.47,23.11,11.47,17.84-4.06,22.99-11.47,7.76-18.18,7.76-31.6-2.61-24.18-7.76-31.6-12.83-11.47-22.99-11.47Z"/>
  </g>
</svg>