<?xml version="1.0" encoding="UTF-8"?>
<svg id="_레이어_2" data-name="레이어 2" xmlns="http://www.w3.org/2000/svg" viewBox="0 0 82.66 112.1">
  <defs>
    <style>
      .cls-1 {
        fill: #ab71ff;
        stroke-width: 0px;
      }
    </style>
  </defs>
  <g id="_레이어_1-2" data-name="레이어 1">
    <path class="cls-1" d="m66.71,35.1c0-6.82-2.28-12.33-6.45-16.13s-10.22-5.91-17.76-5.91-13.78,1.74-17.76,4.64-6.02,6.96-6.02,11.6,2.03,8.56,6.33,11.66,10.86,5.6,19.92,8.07c12.18,3.41,21.61,7.36,27.99,12.65s9.72,11.93,9.72,20.7c0,9.35-4.13,16.79-11.15,21.88s-16.91,7.85-28.44,7.85c-10.73,0-21.5-2.47-29.58-8.12S0,89.48,0,76.72h15.37c0,8.77,3.59,14.39,8.85,17.82s12.18,4.66,18.85,4.66c7.4,0,13.49-1.6,17.73-4.48s6.63-7.05,6.63-12.2-1.63-8.81-5.8-12.07-10.88-5.98-21.03-8.81c-11.17-3.12-20.45-6.45-26.94-11.35S3.48,38.94,3.48,29.58c0-8.85,4.02-16.24,10.91-21.43S31.03,0,42.49,0c12.25,0,22.12,3.7,28.91,9.93s10.53,15.01,10.53,25.16h-15.23Z"/>
  </g>
</svg>