<?xml version="1.0" encoding="UTF-8"?>
<svg id="_레이어_2" data-name="레이어 2" xmlns="http://www.w3.org/2000/svg" viewBox="0 0 77.88 109.34">
  <defs>
    <style>
      .cls-1 {
        fill: #ab71ff;
        stroke-width: 0px;
      }
    </style>
  </defs>
  <g id="_레이어_1-2" data-name="레이어 1">
    <path class="cls-1" d="m0,109.34V0h34.66c11.82,0,21.28,2.21,27.79,7.05s10.06,12.31,10.06,22.82c0,4.71-1.34,9.14-3.72,12.94s-5.78,7-9.92,9.25c5.87,2.18,10.62,5.76,13.9,10.21s5.09,9.73,5.09,15.32c0,10.37-3.84,18.31-10.59,23.66s-16.39,8.1-27.99,8.1H0Zm35.67-62.65c6.82,0,12.22-1.45,15.92-4.3s5.69-7.09,5.69-12.67-1.89-9.97-5.66-12.69-9.43-3.99-16.97-3.99H15.23v33.64h20.45Zm3.63,49.6c7.25,0,13.09-1.7,17.11-4.88s6.24-7.81,6.24-13.69c0-5.22-1.85-9.72-5.62-12.91s-9.46-5.08-17.15-5.08H15.23v36.54h24.07Z"/>
  </g>
</svg>