<?xml version="1.0" encoding="UTF-8"?>
<svg id="_레이어_2" data-name="레이어 2" xmlns="http://www.w3.org/2000/svg" viewBox="0 0 88.03 112.1">
  <defs>
    <style>
      .cls-1 {
        fill: #4aeaff;
        stroke-width: 0px;
      }
    </style>
  </defs>
  <g id="_레이어_1-2" data-name="레이어 1">
    <path class="cls-1" d="m88.03,75.84c-1.67,11.67-7,20.74-14.5,26.88s-17.18,9.37-27.55,9.37c-13.78,0-25.27-5.08-33.32-14.63S0,73.89,0,55.98,4.6,24.15,12.65,14.61,32.19,0,45.97,0c10.37,0,20.05,3.19,27.55,9.3s12.83,15.14,14.5,26.81h-15.23c-1.38-7.47-4.75-13.23-9.44-17.13s-10.71-5.93-17.38-5.93c-9.57,0-17.26,3.95-22.55,11.29s-8.19,18.07-8.19,31.63,2.9,24.33,8.19,31.7,12.98,11.37,22.55,11.37c6.67,0,12.69-2.03,17.38-5.95s8.07-9.72,9.44-17.26h15.23Z"/>
  </g>
</svg>