<?xml version="1.0" encoding="UTF-8"?>
<svg id="_레이어_2" data-name="레이어 2" xmlns="http://www.w3.org/2000/svg" viewBox="0 0 608.69 249">
  <defs>
    <style>
      .cls-1 {
        fill: #744b9a;
      }

      .cls-1, .cls-2, .cls-3, .cls-4 {
        stroke-width: 0px;
      }

      .cls-2 {
        fill: #29b5b2;
      }

      .cls-3 {
        fill: #fff;
      }

      .cls-4 {
        fill: #fabe00;
      }
    </style>
  </defs>
  <g id="_레이어_1-2" data-name="레이어 1">
    <g>
      <path class="cls-2" d="m577.26,249H31.43c-8.68,0-16.54-3.52-22.22-9.21S0,226.25,0,217.57V31.43C0,22.75,3.52,14.89,9.21,9.21S22.75,0,31.43,0h545.83c8.68,0,16.54,3.52,22.22,9.21s9.21,13.55,9.21,22.22v186.14c0,8.68-3.52,16.54-9.21,22.22s-13.55,9.21-22.22,9.21Z"/>
      <path class="cls-1" d="m54.61,132.03c0,21.3,8.64,40.59,22.6,54.55,13.96,13.96,33.25,22.6,54.55,22.6s40.59-8.64,54.55-22.6c13.96-13.96,22.6-33.25,22.6-54.55s-8.64-40.59-22.6-54.55c-13.96-13.96-33.25-22.6-54.55-22.6v-25.38l-22.11,19.45-22.11,19.45c-10.5,8.57-18.74,18.38-24.34,29.1s-8.59,22.33-8.59,34.52"/>
      <g>
        <path class="cls-3" d="m333.29,138.22c0,1.35-.14,2.63-.43,3.84s-.71,2.35-1.28,3.42c-.57,1.07-1.25,2.05-2.05,2.95s-1.71,1.71-2.74,2.44c-1.03.73-2.15,1.38-3.37,1.94s-2.53,1.04-3.93,1.43c-1.41.39-2.88.69-4.42.88s-3.15.29-4.83.29-3.16-.09-4.71-.27-3.06-.46-4.54-.82c-1.49-.37-2.9-.85-4.23-1.45s-2.59-1.32-3.76-2.16-2.23-1.79-3.17-2.87-1.76-2.27-2.46-3.58c-.7-1.31-1.23-2.77-1.58-4.39s-.53-3.38-.53-5.3h10.95c0,1.19.1,2.27.3,3.23s.51,1.82.91,2.56c.41.74.88,1.41,1.41,2s1.13,1.1,1.8,1.53c.66.43,1.37.8,2.12,1.09s1.54.53,2.38.69c.84.16,1.68.28,2.53.37s1.71.12,2.58.12c1.87,0,3.54-.18,5.02-.53s2.77-.88,3.86-1.58,1.92-1.53,2.46-2.49.82-2.05.82-3.27c0-.59-.06-1.16-.17-1.7s-.29-1.05-.52-1.54c-.23-.49-.54-.95-.92-1.39s-.85-.85-1.39-1.25c-.54-.39-1.17-.77-1.89-1.15s-1.52-.73-2.41-1.09c-.89-.35-1.89-.71-2.98-1.07s-2.29-.74-3.59-1.12h-.08c-1.6-.43-3.12-.88-4.57-1.35s-2.84-.95-4.15-1.45c-1.31-.5-2.53-1.05-3.65-1.65s-2.15-1.25-3.08-1.96c-.93-.7-1.76-1.47-2.48-2.3s-1.34-1.73-1.86-2.69c-.51-.96-.9-2.02-1.16-3.17s-.38-2.41-.38-3.76c0-1.27.14-2.49.42-3.65s.69-2.27,1.25-3.33c.55-1.05,1.22-2.03,2.01-2.93s1.68-1.72,2.7-2.46c1.01-.74,2.12-1.41,3.33-1.99s2.5-1.08,3.89-1.5c1.39-.42,2.86-.73,4.39-.94s3.14-.31,4.82-.31,3.43.13,5.02.39,3.09.64,4.51,1.16c1.42.51,2.73,1.13,3.93,1.84s2.3,1.52,3.29,2.42c.99.91,1.86,1.9,2.63,2.99s1.42,2.27,1.96,3.54c.54,1.27.95,2.61,1.22,4.02s.41,2.88.41,4.42h-10.87c0-1.87-.27-3.51-.81-4.94s-1.35-2.63-2.43-3.62c-1.08-.99-2.36-1.73-3.83-2.22s-3.14-.74-5.01-.74c-1.97,0-3.7.18-5.19.55s-2.73.91-3.73,1.64-1.75,1.55-2.25,2.47-.75,1.93-.75,3.04c0,1.16.27,2.21.81,3.14s1.35,1.75,2.43,2.45c1.08.7,2.48,1.39,4.2,2.05s3.75,1.3,6.1,1.93c1.76.49,3.41,1,4.97,1.53s3.01,1.09,4.36,1.67c1.35.58,2.6,1.21,3.73,1.88s2.16,1.38,3.08,2.14c.92.76,1.73,1.57,2.42,2.43s1.28,1.78,1.75,2.76c.47.97.83,2.02,1.06,3.14s.36,2.32.36,3.59Z"/>
        <path class="cls-3" d="m388.86,102.53h-20.04v52.08h-10.87v-52.08h-20.04v-9.25h50.94v9.25Z"/>
        <path class="cls-3" d="m437.29,154.61h-39.91v-61.33h39.75v9.25h-28.88v15.9h25.8v9.25h-25.8v17.68h29.04v9.25Z"/>
        <path class="cls-3" d="m492.29,112.42c0,1.43-.12,2.8-.36,4.11s-.59,2.54-1.06,3.72c-.47,1.18-1.06,2.27-1.77,3.28s-1.54,1.93-2.48,2.77c-.95.84-2.01,1.58-3.19,2.23s-2.48,1.2-3.9,1.66c-1.42.46-2.95.8-4.59,1.03s-3.4.34-5.26.34h-12.17v23.04h-10.87v-61.33h23.04c1.87,0,3.62.11,5.26.34s3.17.57,4.59,1.03c1.42.46,2.72,1.02,3.9,1.66s2.25,1.39,3.19,2.23c.95.84,1.77,1.76,2.48,2.77s1.3,2.1,1.77,3.27c.47,1.18.83,2.42,1.06,3.72s.36,2.67.36,4.11Zm-10.87,0c0-.68-.06-1.33-.17-1.98s-.29-1.27-.52-1.88c-.23-.61-.52-1.18-.87-1.7s-.76-1.01-1.24-1.46c-.47-.45-1.01-.84-1.62-1.2s-1.28-.66-2.03-.91c-.74-.26-1.56-.45-2.44-.58s-1.84-.19-2.87-.19h-12.17v19.79h12.17c1.03,0,1.98-.06,2.87-.19s1.7-.32,2.44-.58c.74-.26,1.42-.56,2.03-.91s1.15-.75,1.62-1.2c.47-.45.88-.93,1.24-1.46s.64-1.1.87-1.7c.23-.61.4-1.23.52-1.88s.17-1.3.17-1.98Z"/>
        <path class="cls-3" d="m542.34,136.84c0,1.51-.13,2.94-.4,4.27s-.66,2.57-1.19,3.72c-.53,1.15-1.16,2.2-1.89,3.16s-1.56,1.83-2.49,2.6c-.93.77-1.95,1.45-3.06,2.04s-2.31,1.08-3.59,1.49c-1.28.41-2.62.71-4.01.91s-2.82.3-4.31.3c-1.38,0-2.74-.1-4.09-.29s-2.67-.49-3.99-.88c-1.31-.39-2.55-.89-3.71-1.49s-2.25-1.31-3.26-2.12c-1.01-.81-1.93-1.73-2.75-2.77s-1.54-2.18-2.16-3.44c-.62-1.26-1.09-2.63-1.4-4.13s-.47-3.11-.47-4.84h10.87c0,1.76.25,3.3.75,4.64s1.25,2.45,2.25,3.36c1,.91,2.16,1.59,3.49,2.04s2.81.68,4.46.68,3.01-.19,4.25-.57,2.3-.95,3.17-1.7c.88-.76,1.54-1.7,1.98-2.84s.66-2.46.66-3.98c0-1.62-.27-3.03-.8-4.21s-1.34-2.15-2.4-2.89c-1.07-.74-2.32-1.3-3.74-1.67s-3.03-.56-4.82-.56h-7.06v-9.25h7.06c1.78,0,3.34-.18,4.67-.55s2.44-.91,3.32-1.64c.88-.73,1.54-1.57,1.98-2.51s.66-2,.66-3.16c0-1.32-.18-2.52-.55-3.58s-.91-1.99-1.64-2.79c-.73-.8-1.68-1.4-2.86-1.79s-2.58-.6-4.2-.6c-1.41,0-2.69.2-3.85.6s-2.2,1-3.12,1.79c-.92.8-1.61,1.84-2.07,3.11s-.69,2.8-.69,4.55h-10.87c0-1.49.13-2.9.39-4.24s.64-2.6,1.16-3.79c.51-1.19,1.13-2.29,1.85-3.31s1.53-1.94,2.45-2.78c.92-.84,1.92-1.58,3.01-2.22s2.26-1.19,3.52-1.63,2.57-.78,3.94-1,2.8-.33,4.29-.33,2.96.1,4.34.3,2.69.51,3.93.91c1.24.41,2.4.9,3.46,1.49s2.03,1.27,2.91,2.04c.88.77,1.66,1.63,2.33,2.58s1.25,1.98,1.72,3.1.83,2.33,1.06,3.62.36,2.67.36,4.13c0,1.14-.13,2.25-.4,3.36s-.66,2.19-1.19,3.25c-.53,1.07-1.21,2.07-2.04,2.99s-1.81,1.78-2.95,2.57c1.43.78,2.65,1.68,3.65,2.68s1.79,2.11,2.35,3.33.99,2.49,1.28,3.81.43,2.7.43,4.14Z"/>
      </g>
      <g>
        <path class="cls-4" d="m118,126.31h-4.57v-11.32h-11.73v11.32h-4.57v-25.79h4.57v10.57h11.73v-10.57h4.57v25.79Z"/>
        <path class="cls-4" d="m128.99,102.09c0,.4-.07.77-.2,1.11s-.34.66-.61.95c-.27.29-.59.51-.94.65s-.74.22-1.18.22-.82-.07-1.18-.22-.67-.36-.94-.65c-.27-.29-.48-.61-.61-.95s-.2-.72-.2-1.11.07-.77.2-1.11.34-.66.61-.95c.27-.29.59-.51.94-.65s.74-.22,1.18-.22.82.07,1.18.22.67.36.94.65c.27.29.48.61.61.95s.2.71.2,1.11Zm-.68,24.22h-4.5v-19.17h4.5v19.17Z"/>
        <path class="cls-4" d="m149.93,126.31h-4.37v-1.4h-.34c-.26.27-.55.52-.87.73s-.66.4-1.03.55c-.37.15-.77.27-1.22.34s-.92.11-1.43.11c-.43,0-.86-.04-1.29-.12s-.86-.2-1.28-.36c-.43-.16-.83-.36-1.21-.6s-.74-.52-1.07-.85-.64-.69-.91-1.1-.51-.86-.71-1.36c-.2-.49-.36-1.03-.46-1.62s-.15-1.21-.15-1.88v-11.63h4.5v11.6c0,.6.08,1.15.23,1.64s.38.93.69,1.31c.31.38.67.67,1.09.86s.9.29,1.43.29c.26,0,.52-.03.77-.08s.49-.13.73-.23c.24-.1.46-.22.67-.37s.4-.3.58-.49c.18-.18.33-.38.47-.6s.26-.45.36-.7.18-.51.23-.78.08-.56.08-.85v-11.6h4.5v19.17Z"/>
        <path class="cls-4" d="m172,116.72c0,.75-.05,1.47-.16,2.15s-.26,1.33-.47,1.94c-.21.61-.46,1.18-.76,1.71s-.63,1-1.01,1.43c-.38.43-.8.81-1.25,1.15s-.94.62-1.46.85-1.07.41-1.65.52-1.17.17-1.8.17c-.18,0-.37-.01-.55-.04s-.38-.07-.57-.13c-.19-.06-.38-.12-.57-.2s-.37-.16-.55-.26-.35-.2-.52-.31-.31-.22-.46-.34c-.14-.12-.27-.24-.38-.37s-.21-.26-.29-.4h-.34v8.94h-4.5v-26.4h4.37v1.47h.34c.16-.2.37-.41.64-.61s.58-.4.95-.6c.37-.2.75-.35,1.15-.45s.8-.15,1.22-.15c.64,0,1.25.06,1.83.18s1.14.29,1.67.52c.53.23,1.02.52,1.48.85s.87.72,1.25,1.16c.38.44.72.92,1.01,1.44s.55,1.09.76,1.7.37,1.25.47,1.93.16,1.39.16,2.14Zm-4.5,0c0-.42-.02-.83-.06-1.23s-.11-.78-.19-1.16c-.09-.38-.19-.73-.32-1.05s-.28-.62-.45-.89c-.17-.27-.36-.52-.58-.73s-.45-.4-.72-.56c-.26-.16-.54-.28-.84-.36s-.62-.12-.96-.12c-.27,0-.54.03-.8.08s-.51.13-.75.23c-.24.1-.48.24-.7.4s-.42.37-.62.6c-.19.23-.37.5-.52.81s-.29.66-.4,1.04c-.11.39-.2.82-.26,1.3s-.09,1-.09,1.57.03,1.07.09,1.55.14.91.26,1.3c.11.39.25.75.4,1.07s.33.6.52.84c.19.24.4.46.62.64s.46.33.71.44c.25.11.5.2.76.26s.51.09.78.09c.34,0,.66-.04.96-.12s.58-.2.84-.36c.26-.16.5-.35.72-.56s.41-.46.58-.73c.17-.27.32-.57.45-.89s.23-.67.32-1.04.15-.75.19-1.16.06-.82.06-1.25Z"/>
      </g>
      <g>
        <path class="cls-3" d="m110.53,154.88c-.65,0-1.28-.05-1.88-.15s-1.18-.26-1.73-.46-1.06-.45-1.54-.74-.91-.62-1.31-1c-.4-.38-.75-.79-1.07-1.24s-.58-.94-.8-1.47c-.22-.53-.39-1.08-.5-1.66s-.17-1.2-.17-1.84.06-1.25.17-1.84.28-1.14.5-1.66c.22-.53.49-1.01.8-1.46s.67-.86,1.07-1.24c.4-.37.84-.71,1.31-1s.99-.54,1.54-.74,1.13-.36,1.73-.46,1.23-.15,1.88-.15,1.3.05,1.91.16,1.19.27,1.75.49c.56.22,1.07.48,1.55.78s.92.65,1.31,1.03h6.75v-2.76h4.86v18.68h-4.86v-3.77h-6.71c-.4.4-.84.75-1.32,1.06s-1,.57-1.56.79-1.15.38-1.76.49-1.25.16-1.92.16Zm6.71,15.96c-.92,0-1.79-.04-2.63-.12s-1.62-.2-2.36-.35-1.43-.35-2.07-.59-1.22-.5-1.74-.81c-.53-.31-.99-.65-1.4-1.03s-.75-.79-1.03-1.24c-.28-.45-.5-.93-.64-1.45s-.21-1.08-.21-1.67.07-1.15.21-1.67.36-1,.64-1.45c.28-.45.63-.86,1.03-1.24s.87-.72,1.4-1.03c.53-.31,1.11-.58,1.74-.81s1.32-.43,2.07-.59c.74-.16,1.53-.27,2.36-.35s1.71-.12,2.63-.12,1.79.04,2.63.12,1.62.2,2.36.35c.74.16,1.43.35,2.07.59s1.22.5,1.74.81c.53.31.99.65,1.4,1.03s.75.79,1.03,1.24c.28.45.5.93.64,1.45s.21,1.08.21,1.67-.07,1.15-.21,1.67-.36,1-.64,1.45c-.28.45-.63.86-1.03,1.24s-.87.72-1.4,1.03c-.53.31-1.11.58-1.74.81s-1.32.43-2.07.59-1.53.28-2.36.35-1.71.12-2.63.12Zm-6.71-29.02c-.67,0-1.25.1-1.76.3s-.94.51-1.3.91c-.36.41-.62.88-.8,1.43s-.27,1.17-.27,1.85.09,1.31.27,1.86.45,1.02.8,1.43c.36.41.79.71,1.3.91s1.1.3,1.76.3,1.25-.1,1.76-.3.94-.51,1.3-.91c.36-.4.62-.88.8-1.43s.27-1.17.27-1.86-.09-1.31-.27-1.85-.45-1.02-.8-1.43c-.36-.4-.79-.71-1.3-.91s-1.1-.3-1.76-.3Zm6.71,18.57c-1.21,0-2.26.07-3.15.21s-1.62.35-2.2.63c-.57.28-1.01.61-1.29,1.01s-.43.84-.43,1.35.14.96.43,1.35.72.73,1.29,1.01c.57.28,1.31.49,2.2.63s1.94.21,3.15.21,2.26-.07,3.15-.21,1.63-.35,2.2-.63c.57-.28,1.01-.61,1.29-1.01s.43-.84.43-1.35-.14-.96-.43-1.35-.72-.73-1.29-1.01c-.57-.28-1.31-.49-2.2-.63s-1.94-.21-3.15-.21Zm2.29-14.08c0,.18,0,.36-.02.54s-.03.35-.05.52c-.02.17-.05.34-.08.51s-.06.34-.1.51h4.53v-4.17h-4.53c.04.17.07.34.1.51s.06.35.08.52c.02.18.04.35.05.53s.02.36.02.54Z"/>
        <path class="cls-3" d="m142.67,164.38c-1.35,0-2.57-.27-3.65-.82s-2.01-1.38-2.81-2.48c-.8-1.1-1.4-2.46-1.8-4.07s-.6-3.49-.6-5.61.2-4,.6-5.61,1-2.97,1.8-4.07c.8-1.1,1.74-1.93,2.81-2.48s2.29-.83,3.65-.83c1.21,0,2.31.22,3.29.65s1.86,1.08,2.62,1.95c.76.86,1.38,1.93,1.84,3.21s.78,2.75.95,4.43h4.14v-11.17h4.86v32.5h-4.86v-17.2h-4.03c-.1,1.91-.36,3.59-.8,5.03s-1.05,2.66-1.83,3.64-1.69,1.71-2.72,2.2-2.19.73-3.47.73Zm0-21.84c-.63,0-1.19.18-1.68.54s-.91.9-1.26,1.62c-.35.72-.61,1.64-.79,2.75s-.26,2.43-.26,3.94.09,2.83.26,3.94.44,2.03.79,2.75c.35.72.77,1.26,1.26,1.62s1.05.54,1.68.54,1.19-.18,1.68-.54.91-.9,1.26-1.62c.35-.72.61-1.64.79-2.75s.26-2.43.26-3.94-.09-2.82-.26-3.94-.44-2.03-.79-2.75c-.35-.72-.77-1.26-1.26-1.62s-1.05-.54-1.68-.54Z"/>
      </g>
    </g>
  </g>
</svg>