<?xml version="1.0" encoding="UTF-8"?>
<svg id="_레이어_2" data-name="레이어 2" xmlns="http://www.w3.org/2000/svg" viewBox="0 0 547.27 127.33">
  <defs>
    <style>
      .cls-1 {
        fill: #feb60c;
      }

      .cls-1, .cls-2, .cls-3, .cls-4 {
        stroke-width: 0px;
      }

      .cls-2 {
        fill: #8c5cd4;
      }

      .cls-3 {
        fill: #e85505;
      }

      .cls-4 {
        fill: #1694d1;
      }
    </style>
  </defs>
  <g id="_레이어_1-2" data-name="레이어 1">
    <g>
      <path class="cls-4" d="m92.35,53.62h17.58v13.73h-17.58v43.21l-15.86-.12V18.05h15.86v35.57Zm-25.63-30.8v23.81c-.28,7.5-.84,15.93-1.98,21.87-1.28,5.93-3.12,11.33-5.67,15.86-2.69,4.69-6.08,8.64-10.19,11.76-4.25,3.41-9.49,5.95-15.59,7.92v-15.15c2.84-1.41,5.24-3.1,7.51-5.1,2.12-1.82,3.96-4.24,5.38-7.37,1.42-2.96,2.41-6.66,3.26-11.18.7-4.26,1.13-11.4,1.13-17.9v-10.35h-13.6v6.8c-.28,14.99-3.69,28.38-10.2,36.45-6.66,8.21-15.58,13.47-26.77,15.73v-14.17c2.82-.98,5.52-2.26,8.07-3.83,2.4-1.41,4.54-3.54,6.52-6.09,1.85-2.54,3.39-5.96,4.53-10.06,1.14-3.95,1.7-10.95,1.7-17.34v-7.49H0v-14.18h66.72Z"/>
      <rect class="cls-3" x="116.53" y="96.96" width="96.75" height="13.6"/>
      <rect class="cls-2" x="222.63" y="96.96" width="96.77" height="13.6"/>
      <path class="cls-3" d="m202.86,59.34l2.37,13.67c-2.27,1.83-4.99,3.6-8.3,5.17-3.44,1.75-28.7,14.88-54.54,6.89-3.27-1.02-6.86-3.71-8.99-6.07-2.26-2.22-3.62-5.14-4.25-8.75l-3.27-18.88,53.58-9.28-1.89-10.87-53.44,9.26-2.37-13.66,69.49-12.04,6.5,37.52-53.44,9.25,1.05,6.04c.25,1.39,2.05,3.23,3.6,3.99,11.43,5.76,34.86-2.61,38.12-3.75,3.25-1.14,6.18-2.52,8.94-4,2.65-1.32,4.99-2.71,6.85-4.47"/>
      <path class="cls-2" d="m306.14,70.19l-1.98,13.73c-2.73,1.03-5.86,1.87-9.5,2.35-3.81.6-31.89,5.25-53.99-10.34-2.8-1.97-5.37-5.67-6.66-8.57-1.47-2.77-1.87-5.98-1.33-9.63l2.73-18.95,53.82,7.74,1.57-10.9-53.68-7.74,1.99-13.73,69.8,10.05-5.44,37.69-53.67-7.74-.87,6.07c-.21,1.39.95,3.69,2.18,4.92,9.08,9,33.96,8.31,37.41,8.23,3.44-.09,6.65-.48,9.74-1.05,2.93-.42,5.59-1.04,7.9-2.13"/>
      <path class="cls-1" d="m406.46,48.53c0,4-.67,7.47-2,10.53-1.47,3.2-3.33,5.87-5.73,8.13-2.4,2.27-5.07,4-8.27,5.07-3.33,1.33-6.8,1.87-10.54,1.87s-7.33-.53-10.53-1.87c-3.33-1.07-6.13-2.8-8.4-5.07-2.4-2.27-4.26-4.93-5.46-8.13-1.34-3.07-2-6.53-2-10.53,0-3.73.66-6.93,2.13-9.87.27-.53.53-1.2.93-1.87h-7.6v-13.33h61.46v13.33h-7.33l1.07,1.87c1.46,2.93,2.26,6.13,2.26,9.87m-54.8-38.39l7.2-10.14c1.87,2,4.4,3.47,7.73,4.53,3.2,1.2,7.47,1.73,13.07,1.73h22.53v12.53h-23.6c-5.87,0-11.06-.53-15.33-1.87-4.4-1.2-8.27-3.46-11.6-6.8m39.73,38.53c0-3.47-1.06-6.4-2.93-8.53-2-2.13-4.8-3.33-8.54-3.33-3.46,0-6.26,1.07-8.4,3.07-2.13,2.14-3.2,5.07-3.2,8.8,0,4,.93,7.07,3.07,9.47,2,2.4,4.66,3.6,8.13,3.6,3.87,0,6.8-1.2,8.93-3.6,1.87-2.27,2.93-5.47,2.93-9.47m44.67-14.8h16.53v13.2h-16.53v35.85h-15.07V6.27h15.07v27.6Z"/>
      <path class="cls-1" d="m535,109.99v12.66c-2.4.8-5.2,1.6-8.27,2.4-3.2.53-6.4,1.06-9.73,1.47-3.47.4-8.34.66-11.81.8-3.6,0-7.07-.26-10.4-.67-3.47-.53-6.53-1.2-9.47-2-3.06-1.06-5.73-2.27-7.86-3.73-2.14-1.6-3.87-3.6-5.07-5.73-1.33-2.27-2-7.77-2-10.97v-12.53h45.8v-8.39h-45.67v-12.8h60.87v33.72h-45.54v4.17c0,1.87,1.6,3.33,4.93,4.4,3.2,1.07,7.33,1.73,12.26,2,4.8.13,11.41-.13,17.01-.8,5.47-.8,10.4-2.13,14.93-4"/>
      <path class="cls-4" d="m436.67,101.04v13.33c-5.38,3.87-13.4,6.54-20.66,8.13-7.26,1.33-16.38,1.46-22.83.27-6.72-1.33-12.23-4.13-16.81-8.4-4.57-4.27-6.86-10.4-6.86-18.13v-11.81h15.2v13.67c0,3.2,1.21,5.73,3.9,7.6,2.55,2.13,6.9,3.33,11.47,3.86,4.3.53,10.69.13,16.61-1.2,5.78-1.2,13.54-3.6,19.99-7.33"/>
      <path class="cls-4" d="m515,50.44c2.66-3.47,4.4-6.8,4.93-10.27.53-3.33.8-7.47.8-12.26v-8.71h-54.88V6.27h69.68v20.71c-.13,2.66-.13,5.2-.13,7.46-.13,2.4-.27,4.53-.53,6.4-.27,2-.8,3.87-1.47,5.47-.67,1.6-1.6,2.93-2.67,4.13h16.53v12.8h-91.06v-12.8h58.8Z"/>
    </g>
  </g>
</svg>