<?xml version="1.0" encoding="UTF-8"?>
<svg id="_레이어_2" data-name="레이어 2" xmlns="http://www.w3.org/2000/svg" viewBox="0 0 154.3 179.68">
  <defs>
    <style>
      .cls-1 {
        fill: #00a74d;
      }

      .cls-1, .cls-2, .cls-3 {
        stroke-width: 0px;
      }

      .cls-2 {
        fill: #fff;
      }

      .cls-3 {
        fill: #fabe00;
      }
    </style>
  </defs>
  <g id="_레이어_1-2" data-name="레이어 1">
    <g>
      <path class="cls-1" d="m0,102.53c0,42.61,34.54,77.15,77.15,77.15s77.15-34.54,77.15-77.15S119.76,25.38,77.15,25.38V0l-44.22,38.91C11.92,56.06,0,78.15,0,102.53"/>
      <g>
        <path class="cls-3" d="m63.39,96.81h-4.57v-11.32h-11.73v11.32h-4.57v-25.79h4.57v10.57h11.73v-10.57h4.57v25.79Z"/>
        <path class="cls-3" d="m74.38,72.6c0,.8-.27,1.48-.82,2.06-.55.58-1.25.87-2.11.87s-1.57-.29-2.11-.87c-.55-.58-.82-1.27-.82-2.06s.27-1.48.82-2.06c.55-.58,1.25-.87,2.11-.87s1.57.29,2.11.87c.55.58.82,1.27.82,2.06Zm-.68,24.22h-4.5v-19.17h4.5v19.17Z"/>
        <path class="cls-3" d="m95.32,96.81h-4.37v-1.4h-.34c-.52.55-1.15.97-1.89,1.28-.74.31-1.62.46-2.64.46-.86,0-1.72-.16-2.58-.48-.85-.32-1.61-.8-2.29-1.45s-1.21-1.47-1.62-2.46c-.41-.99-.61-2.15-.61-3.5v-11.63h4.5v11.6c0,1.21.31,2.19.92,2.95.61.76,1.46,1.14,2.52,1.14.52,0,1.02-.1,1.5-.31.48-.2.89-.49,1.25-.85.35-.36.63-.8.84-1.3s.31-1.05.31-1.64v-11.6h4.5v19.17Z"/>
        <path class="cls-3" d="m117.39,87.23c0,1.5-.21,2.87-.63,4.09-.42,1.23-1.01,2.27-1.77,3.14-.76.86-1.67,1.53-2.71,2s-2.19.7-3.44.7c-.36,0-.74-.06-1.13-.17-.39-.11-.76-.27-1.13-.46s-.69-.41-.97-.65c-.28-.24-.51-.5-.67-.77h-.34v8.94h-4.5v-26.4h4.37v1.47h.34c.32-.41.85-.81,1.59-1.21.74-.4,1.53-.6,2.37-.6,1.27,0,2.44.23,3.5.7,1.06.47,1.97,1.14,2.73,2.01.76.88,1.35,1.92,1.77,3.14s.63,2.58.63,4.08Zm-4.5,0c0-.84-.09-1.64-.26-2.39-.17-.75-.43-1.4-.77-1.94-.34-.55-.77-.98-1.3-1.3-.52-.32-1.13-.48-1.81-.48-.55,0-1.06.1-1.55.31-.49.2-.93.54-1.31,1.01-.39.47-.69,1.09-.92,1.86-.23.77-.34,1.73-.34,2.87s.11,2.06.34,2.85c.23.78.53,1.42.92,1.91.39.49.83.85,1.33,1.07.5.23,1.01.34,1.53.34.68,0,1.28-.16,1.81-.48.52-.32.96-.75,1.3-1.3.34-.55.6-1.19.77-1.93s.26-1.54.26-2.41Z"/>
      </g>
      <g>
        <path class="cls-2" d="m55.92,125.38c-1.31,0-2.51-.21-3.61-.62s-2.05-.99-2.85-1.74c-.8-.75-1.42-1.65-1.87-2.7-.45-1.05-.67-2.22-.67-3.5s.22-2.45.67-3.5c.45-1.05,1.07-1.95,1.87-2.7.8-.75,1.75-1.33,2.85-1.74s2.3-.62,3.61-.62,2.55.22,3.66.65c1.11.44,2.07,1.04,2.87,1.81h6.75v-2.76h4.86v18.68h-4.86v-3.77h-6.71c-.8.8-1.76,1.42-2.88,1.85s-2.35.65-3.68.65Zm6.71,15.96c-1.84,0-3.5-.16-4.99-.47s-2.76-.78-3.81-1.4c-1.05-.62-1.86-1.37-2.43-2.27-.57-.9-.85-1.93-.85-3.12s.28-2.22.85-3.12c.57-.89,1.38-1.65,2.43-2.27,1.05-.62,2.32-1.08,3.81-1.4,1.49-.31,3.15-.47,4.99-.47s3.5.16,4.99.47c1.49.32,2.76.78,3.81,1.4,1.05.62,1.86,1.37,2.43,2.27.57.9.85,1.94.85,3.12s-.28,2.22-.85,3.12c-.57.89-1.38,1.65-2.43,2.27-1.05.62-2.32,1.08-3.81,1.4s-3.15.47-4.99.47Zm-6.71-29.02c-1.33,0-2.35.41-3.07,1.21-.71.81-1.07,1.91-1.07,3.28s.36,2.47,1.07,3.28c.71.81,1.73,1.22,3.07,1.22s2.35-.41,3.07-1.22c.71-.81,1.07-1.9,1.07-3.28s-.36-2.47-1.07-3.28c-.71-.81-1.74-1.21-3.07-1.21Zm6.71,18.57c-2.42,0-4.2.28-5.35.83-1.15.56-1.72,1.34-1.72,2.36s.57,1.8,1.72,2.36c1.15.56,2.93.83,5.35.83s4.2-.28,5.35-.83c1.15-.56,1.72-1.34,1.72-2.36s-.57-1.8-1.72-2.36c-1.15-.56-2.93-.83-5.35-.83Zm2.29-14.08c0,.36-.02.71-.07,1.05-.05.34-.11.68-.18,1.02h4.53v-4.17h-4.53c.07.34.13.68.18,1.03.05.35.07.71.07,1.07Z"/>
        <path class="cls-2" d="m88.06,134.89c-2.71,0-4.86-1.1-6.46-3.3-1.6-2.2-2.39-5.43-2.39-9.69s.8-7.49,2.39-9.69c1.6-2.2,3.75-3.3,6.46-3.3,2.42,0,4.39.87,5.91,2.59,1.52,1.73,2.45,4.28,2.79,7.64h4.14v-11.17h4.86v32.5h-4.86v-17.2h-4.03c-.19,3.82-1.07,6.71-2.63,8.67s-3.62,2.94-6.19,2.94Zm0-21.84c-1.26,0-2.24.72-2.94,2.16-.7,1.44-1.05,3.67-1.05,6.69s.35,5.25,1.05,6.69c.7,1.44,1.68,2.16,2.94,2.16s2.24-.72,2.94-2.16c.7-1.44,1.05-3.67,1.05-6.69s-.35-5.25-1.05-6.69c-.7-1.44-1.68-2.16-2.94-2.16Z"/>
      </g>
    </g>
  </g>
</svg>