<?xml version="1.0" encoding="utf-8"?>
<!-- Generator: Adobe Illustrator 27.9.4, SVG Export Plug-In . SVG Version: 9.03 Build 54784)  -->
<svg version="1.1" id="_레이어_2" xmlns="http://www.w3.org/2000/svg" xmlns:xlink="http://www.w3.org/1999/xlink" x="0px"
	 y="0px" viewBox="0 0 154.3 179.7" style="enable-background:new 0 0 154.3 179.7;" xml:space="preserve">
<style type="text/css">
	.st0{fill:#E63D90;}
	.st1{fill:#FFE8A6;}
	.st2{fill:#FFFFFF;}
</style>
<g id="_레이어_1-2">
	<g>
		<path class="st0" d="M0,102.5c0,42.6,34.5,77.1,77.2,77.1s77.2-34.5,77.2-77.2s-34.5-77.1-77.2-77.1V0L32.9,38.9
			C11.9,56.1,0,78.2,0,102.5"/>
		<g>
			<path class="st1" d="M63.4,96.8h-4.6V85.5H47.1v11.3h-4.6V71h4.6v10.6h11.7V71h4.6C63.4,71,63.4,96.8,63.4,96.8z"/>
			<path class="st1" d="M74.4,72.6c0,0.8-0.3,1.5-0.8,2.1c-0.6,0.6-1.2,0.9-2.1,0.9s-1.6-0.3-2.1-0.9c-0.6-0.6-0.8-1.3-0.8-2.1
				s0.3-1.5,0.8-2.1c0.6-0.6,1.2-0.9,2.1-0.9s1.6,0.3,2.1,0.9S74.4,71.8,74.4,72.6z M73.7,96.8h-4.5V77.7h4.5V96.8z"/>
			<path class="st1" d="M95.3,96.8h-4.4v-1.4h-0.3c-0.5,0.6-1.2,1-1.9,1.3s-1.6,0.5-2.6,0.5c-0.9,0-1.7-0.2-2.6-0.5
				c-0.8-0.3-1.6-0.8-2.3-1.4s-1.2-1.5-1.6-2.5S79,90.6,79,89.3V77.6h4.5v11.6c0,1.2,0.3,2.2,0.9,2.9c0.6,0.8,1.5,1.1,2.5,1.1
				c0.5,0,1-0.1,1.5-0.3c0.5-0.2,0.9-0.5,1.2-0.8c0.3-0.4,0.6-0.8,0.8-1.3s0.3-1.1,0.3-1.6V77.6h4.5L95.3,96.8L95.3,96.8z"/>
			<path class="st1" d="M117.4,87.2c0,1.5-0.2,2.9-0.6,4.1s-1,2.3-1.8,3.1c-0.8,0.9-1.7,1.5-2.7,2s-2.2,0.7-3.4,0.7
				c-0.4,0-0.7-0.1-1.1-0.2s-0.8-0.3-1.1-0.5s-0.7-0.4-1-0.7s-0.5-0.5-0.7-0.8h-0.3v8.9h-4.5V77.7h4.4v1.5h0.3
				c0.3-0.4,0.8-0.8,1.6-1.2s1.5-0.6,2.4-0.6c1.3,0,2.4,0.2,3.5,0.7s2,1.1,2.7,2c0.8,0.9,1.3,1.9,1.8,3.1S117.4,85.7,117.4,87.2
				L117.4,87.2z M112.9,87.2c0-0.8-0.1-1.6-0.3-2.4c-0.2-0.8-0.4-1.4-0.8-1.9c-0.3-0.6-0.8-1-1.3-1.3s-1.1-0.5-1.8-0.5
				c-0.6,0-1.1,0.1-1.6,0.3c-0.5,0.2-0.9,0.5-1.3,1s-0.7,1.1-0.9,1.9c-0.2,0.8-0.3,1.7-0.3,2.9s0.1,2.1,0.3,2.8
				c0.2,0.8,0.5,1.4,0.9,1.9s0.8,0.8,1.3,1.1c0.5,0.2,1,0.3,1.5,0.3c0.7,0,1.3-0.2,1.8-0.5s1-0.8,1.3-1.3c0.3-0.6,0.6-1.2,0.8-1.9
				S112.9,88.1,112.9,87.2L112.9,87.2z"/>
		</g>
		<g>
			<path class="st2" d="M55.9,125.4c-1.3,0-2.5-0.2-3.6-0.6s-2-1-2.8-1.7s-1.4-1.7-1.9-2.7c-0.5-1.1-0.7-2.2-0.7-3.5
				s0.2-2.4,0.7-3.5s1.1-1.9,1.9-2.7s1.8-1.3,2.8-1.7s2.3-0.6,3.6-0.6s2.5,0.2,3.7,0.7c1.1,0.4,2.1,1,2.9,1.8h6.8V108h4.9v18.7h-4.9
				v-3.8h-6.7c-0.8,0.8-1.8,1.4-2.9,1.8S57.3,125.4,55.9,125.4L55.9,125.4z M62.6,141.3c-1.8,0-3.5-0.2-5-0.5s-2.8-0.8-3.8-1.4
				c-1-0.6-1.9-1.4-2.4-2.3c-0.6-0.9-0.8-1.9-0.8-3.1s0.3-2.2,0.8-3.1c0.6-0.9,1.4-1.6,2.4-2.3c1-0.6,2.3-1.1,3.8-1.4s3.2-0.5,5-0.5
				c1.8,0,3.5,0.2,5,0.5s2.8,0.8,3.8,1.4c1.1,0.6,1.9,1.4,2.4,2.3c0.6,0.9,0.8,1.9,0.8,3.1s-0.3,2.2-0.8,3.1
				c-0.6,0.9-1.4,1.6-2.4,2.3c-1.1,0.6-2.3,1.1-3.8,1.4S64.5,141.3,62.6,141.3z M55.9,112.3c-1.3,0-2.3,0.4-3.1,1.2
				c-0.7,0.8-1.1,1.9-1.1,3.3s0.4,2.5,1.1,3.3s1.7,1.2,3.1,1.2s2.3-0.4,3.1-1.2c0.7-0.8,1.1-1.9,1.1-3.3s-0.4-2.5-1.1-3.3
				S57.2,112.3,55.9,112.3z M62.6,130.9c-2.4,0-4.2,0.3-5.3,0.8c-1.2,0.6-1.7,1.3-1.7,2.4s0.6,1.8,1.7,2.4s2.9,0.8,5.3,0.8
				c2.4,0,4.2-0.3,5.3-0.8c1.2-0.6,1.7-1.3,1.7-2.4s-0.6-1.8-1.7-2.4S65,130.9,62.6,130.9z M64.9,116.8c0,0.4,0,0.7-0.1,1.1
				c-0.1,0.3-0.1,0.7-0.2,1h4.5v-4.2h-4.5c0.1,0.3,0.1,0.7,0.2,1S64.9,116.4,64.9,116.8z"/>
			<path class="st2" d="M88.1,134.9c-2.7,0-4.9-1.1-6.5-3.3s-2.4-5.4-2.4-9.7s0.8-7.5,2.4-9.7s3.8-3.3,6.5-3.3
				c2.4,0,4.4,0.9,5.9,2.6s2.4,4.3,2.8,7.6h4.1V108h4.9v32.5h-4.9v-17.2h-4c-0.2,3.8-1.1,6.7-2.6,8.7S90.6,134.9,88.1,134.9
				L88.1,134.9z M88.1,113.1c-1.3,0-2.2,0.7-2.9,2.2c-0.7,1.4-1.1,3.7-1.1,6.7s0.3,5.2,1.1,6.7c0.7,1.4,1.7,2.2,2.9,2.2
				s2.2-0.7,2.9-2.2c0.7-1.4,1.1-3.7,1.1-6.7s-0.3-5.2-1.1-6.7C90.3,113.8,89.3,113.1,88.1,113.1z"/>
		</g>
	</g>
</g>
</svg>
