<?xml version="1.0" encoding="utf-8"?>
<!-- Generator: Adobe Illustrator 27.9.4, SVG Export Plug-In . SVG Version: 9.03 Build 54784)  -->
<svg version="1.1" id="_레이어_2" xmlns="http://www.w3.org/2000/svg" xmlns:xlink="http://www.w3.org/1999/xlink" x="0px"
	 y="0px" viewBox="0 0 99.1 62.1" style="enable-background:new 0 0 99.1 62.1;" xml:space="preserve">
<style type="text/css">
	.st0{fill:#CCCCCC;}
	.st1{fill:#FFFFFF;}
</style>
<g id="_레이어_1-2">
	<g>
		<path class="st0" d="M54.5,41.5c0,0,0.5,2,2.1,3.9s4.1,3.9,8.1,3.9s6.3-0.8,7.7-1.5s1.6-1.5,1.6-1.5s1.4,3.9,4.2,7.9
			s6.9,7.9,12.4,7.9s7.5-6,8.2-13.1s0-15.5,0-20.1S96.5,17,93.1,10.9S85.2,0,80.9,0s-7.3,2.6-9.3,5.2c-2,2.6-2.8,5.2-2.8,5.2
			s-9.4,0-18.8,0.1s-19.1,0-19.5-0.1c0,0-0.9-2.6-2.9-5.2S22.5,0,18.3,0S9.5,4.9,6.1,10.9c-3.4,6-5.8,13.2-5.8,17.9s-0.7,13,0,20.1
			s2.8,13.1,8.2,13.1s9.6-3.9,12.4-7.9s4.2-7.9,4.2-7.9s0.3,0.8,1.6,1.5s3.6,1.5,7.7,1.5s6.6-2,8.1-3.9s2.1-3.9,2.1-3.9L54.5,41.5
			L54.5,41.5z"/>
		<path class="st1" d="M27.8,38c0-1.8,0.7-3.5,1.9-4.7s2.9-1.9,4.7-1.9s3.5,0.7,4.7,1.9c1.2,1.2,1.9,2.9,1.9,4.7s-0.7,3.5-1.9,4.7
			s-2.9,1.9-4.7,1.9s-3.5-0.7-4.7-1.9S27.8,39.9,27.8,38z"/>
		<path class="st1" d="M7.5,21.3c0-3,1.2-5.7,3.2-7.6s4.7-3.2,7.6-3.2s5.7,1.2,7.6,3.2s3.2,4.7,3.2,7.6s-1.2,5.7-3.2,7.6
			s-4.6,3.2-7.6,3.2s-5.7-1.2-7.6-3.2S7.5,24.3,7.5,21.3z"/>
		<g>
			<polygon class="st0" points="20.9,18.8 18.3,18.8 15.6,18.8 15.6,16.3 15.6,13.8 18.3,13.8 20.9,13.8 20.9,16.3 			"/>
			<polygon class="st0" points="20.9,28.8 18.3,28.8 15.6,28.8 15.6,26.3 15.6,23.8 18.3,23.8 20.9,23.8 20.9,26.3 			"/>
			<polygon class="st0" points="15.6,23.8 13,23.8 10.4,23.8 10.4,21.3 10.4,18.8 13,18.8 15.6,18.8 15.6,21.3 			"/>
			<polygon class="st0" points="26.1,23.8 23.5,23.8 20.9,23.8 20.9,21.3 20.9,18.8 23.5,18.8 26.1,18.8 26.1,21.3 			"/>
		</g>
		<path class="st1" d="M57.6,38c0-1.8,0.7-3.5,1.9-4.7s2.9-1.9,4.7-1.9c1.8,0,3.5,0.7,4.7,1.9s1.9,2.9,1.9,4.7s-0.7,3.5-1.9,4.7
			c-1.2,1.2-2.9,1.9-4.7,1.9s-3.5-0.7-4.7-1.9S57.6,39.9,57.6,38z"/>
		<path class="st1" d="M69.6,21.3c0-3,1.2-5.7,3.2-7.6s4.7-3.2,7.6-3.2s5.7,1.2,7.6,3.2s3.2,4.7,3.2,7.6S90,27,88,28.9
			c-1.9,2-4.7,3.2-7.6,3.2s-5.7-1.2-7.6-3.2S69.6,24.3,69.6,21.3z"/>
		<g>
			<polygon class="st0" points="80.6,12.1 78.6,14.5 76.6,16.9 80.4,16.9 84.2,16.9 82.4,14.5 			"/>
			<polygon class="st0" points="80.2,30.5 82.2,28.1 84.2,25.7 80.4,25.7 76.6,25.7 78.4,28.1 			"/>
			<polygon class="st0" points="89.6,21.5 87.2,19.5 84.8,17.5 84.8,21.3 84.8,25.1 87.2,23.3 			"/>
			<polygon class="st0" points="71.2,21.1 73.6,23.1 76,25.1 76,21.3 76,17.5 73.6,19.3 			"/>
		</g>
	</g>
</g>
</svg>
