<?xml version="1.0" encoding="utf-8"?>
<!-- Generator: Adobe Illustrator 27.9.4, SVG Export Plug-In . SVG Version: 9.03 Build 54784)  -->
<svg version="1.1" id="_레이어_2" xmlns="http://www.w3.org/2000/svg" xmlns:xlink="http://www.w3.org/1999/xlink" x="0px"
	 y="0px" viewBox="0 0 82 89.8" style="enable-background:new 0 0 82 89.8;" xml:space="preserve">
<style type="text/css">
	.st0{fill:#CCCCCC;}
	.st1{fill:#FFFFFF;}
	.st2{fill:#9B9B9B;}
</style>
<g id="_레이어_1-2">
	<g>
		<path class="st0" d="M68.5,89.8H6.4V4.8c0-1.3,0.5-2.5,1.4-3.4S9.9,0,11.2,0h59.4c1.3,0,2.6,0.5,3.4,1.4s1.4,2.1,1.4,3.4v77.8
			c0,1.9-0.8,3.7-2.1,5S70.4,89.8,68.5,89.8L68.5,89.8z"/>
		<g>
			<polygon class="st1" points="35,20.8 26.9,20.8 18.8,20.8 18.8,18.5 18.8,16.2 26.9,16.2 35,16.2 35,18.5 			"/>
			<polygon class="st1" points="63.1,20.8 55,20.8 47,20.8 47,18.5 47,16.2 55,16.2 63.1,16.2 63.1,18.5 			"/>
			<polygon class="st1" points="63.1,78.1 41,78.1 18.8,78.1 18.8,74.8 18.8,71.6 41,71.6 63.1,71.6 63.1,74.8 			"/>
		</g>
		<path class="st2" d="M78.1,65.2H3.8c-1.1,0-2-0.4-2.7-1.1S0,62.5,0,61.4v-34c0-1.1,0.4-2,1.1-2.7s1.7-1.1,2.7-1.1h74.3
			c1.1,0,2,0.4,2.7,1.1s1.1,1.7,1.1,2.7v34c0,1.1-0.4,2-1.1,2.7C80.1,64.8,79.2,65.2,78.1,65.2z"/>
		<g>
			<path class="st1" d="M20.6,34.8c-1.2,0-2.6,0-4,0s-2.8,0-4,0c-0.4,0-0.9,0.2-1.1,0.5S11,36,11,36.4v20h5.5V50h7
				c1.7,0,3.2-0.7,4.3-1.9s1.8-3,1.8-5.2c0-2.6-0.6-4.7-2-6S23.9,34.8,20.6,34.8z M20.3,45h-3.8v-5.4c1.5,0,3.4-0.1,4.9,0.1
				s2.5,0.8,2.5,2.2c0,1.7-0.9,2.4-1.8,2.8S20.3,45,20.3,45L20.3,45z"/>
			<path class="st1" d="M43.1,34.8c-1.2,0-2.6,0-4,0s-2.8,0-4,0c-0.5,0-0.8,0.2-1.1,0.5s-0.5,0.7-0.5,1.1v20h5.5V50h7
				c1.7,0,3.2-0.7,4.3-1.9s1.8-3,1.8-5.2c0-2.6-0.6-4.7-2-6S46.3,34.8,43.1,34.8z M42.8,45h-3.8v-5.4c1.5,0,3.4-0.1,4.9,0.1
				s2.5,0.8,2.5,2.2c0,1.7-0.9,2.4-1.8,2.8S42.7,45,42.8,45L42.8,45z"/>
			<polygon class="st1" points="71,34.8 62.3,34.8 53.7,34.8 53.7,37.4 53.7,40 56.7,40 59.7,40 59.7,48.2 59.7,56.4 62.3,56.4 
				64.9,56.4 64.9,48.2 64.9,40 67.9,40 71,40 71,37.4 			"/>
		</g>
	</g>
</g>
</svg>
