<?xml version="1.0" encoding="UTF-8"?>
<svg id="_레이어_2" data-name="레이어 2" xmlns="http://www.w3.org/2000/svg" viewBox="0 0 81.97 89.78">
  <defs>
    <style>
      .cls-1 {
        fill: #148fff;
      }

      .cls-1, .cls-2, .cls-3, .cls-4 {
        stroke-width: 0px;
      }

      .cls-2 {
        fill: #1a55dd;
      }

      .cls-3 {
        fill: #91cefb;
      }

      .cls-4 {
        fill: #fff;
      }
    </style>
  </defs>
  <g id="_레이어_1-2" data-name="레이어 1">
    <g>
      <path class="cls-1" d="m68.48,89.78H6.4V4.85c0-1.34.54-2.55,1.42-3.43s2.09-1.42,3.43-1.42h59.45c1.34,0,2.55.54,3.43,1.42s1.42,2.09,1.42,3.43v77.85c0,1.95-.79,3.72-2.07,5s-3.05,2.07-5,2.07Z"/>
      <g>
        <polygon class="cls-3" points="35.02 20.83 26.93 20.83 18.84 20.83 18.84 18.5 18.84 16.18 26.93 16.18 35.02 16.18 35.02 18.5 35.02 20.83"/>
        <polygon class="cls-3" points="63.13 20.83 55.04 20.83 46.95 20.83 46.95 18.5 46.95 16.18 55.04 16.18 63.13 16.18 63.13 18.5 63.13 20.83"/>
        <polygon class="cls-3" points="63.13 78.06 40.98 78.06 18.84 78.06 18.84 74.82 18.84 71.58 40.98 71.58 63.13 71.58 63.13 74.82 63.13 78.06"/>
      </g>
      <path class="cls-2" d="m78.12,65.25H3.84c-1.06,0-2.02-.43-2.72-1.13s-1.13-1.66-1.13-2.72V27.43c0-1.06.43-2.02,1.13-2.72s1.66-1.13,2.72-1.13h74.28c1.06,0,2.02.43,2.72,1.13s1.13,1.66,1.13,2.72v33.97c0,1.06-.43,2.02-1.13,2.72s-1.66,1.13-2.72,1.13Z"/>
      <g>
        <path class="cls-4" d="m20.64,34.8c-1.22,0-2.63,0-4.03,0s-2.8,0-4,0c-.45,0-.85.18-1.14.47s-.47.7-.47,1.14v20.02h5.46v-6.4h6.97c1.66,0,3.2-.67,4.33-1.9s1.84-3.01,1.84-5.25c0-2.63-.61-4.65-2.03-6.01s-3.67-2.07-6.93-2.07Zm-.34,10.16h-3.84v-5.39c1.55,0,3.4-.14,4.87.08s2.54.79,2.54,2.21c0,1.65-.89,2.43-1.79,2.79s-1.79.31-1.79.31Z"/>
        <path class="cls-4" d="m43.09,34.8c-1.22,0-2.63,0-4.03,0s-2.8,0-4,0c-.45,0-.85.18-1.14.47s-.47.7-.47,1.14v20.02h5.46v-6.4h6.97c1.66,0,3.2-.67,4.33-1.9s1.84-3.01,1.84-5.25c0-2.63-.61-4.65-2.03-6.01s-3.67-2.07-6.93-2.07Zm-.34,10.16h-3.84v-5.39c1.55,0,3.4-.14,4.87.08s2.54.79,2.54,2.21c0,1.65-.89,2.43-1.79,2.79s-1.79.31-1.79.31Z"/>
        <polygon class="cls-4" points="70.96 34.78 62.32 34.78 53.67 34.78 53.67 37.41 53.67 40.04 56.68 40.04 59.69 40.04 59.69 48.23 59.69 56.42 62.32 56.42 64.95 56.42 64.95 48.23 64.95 40.04 67.95 40.04 70.96 40.04 70.96 37.41 70.96 34.78"/>
      </g>
    </g>
  </g>
</svg>