<?xml version="1.0" encoding="UTF-8"?>
<svg id="_레이어_2" data-name="레이어 2" xmlns="http://www.w3.org/2000/svg" viewBox="0 0 93.83 73.82">
  <defs>
    <style>
      .cls-1 {
        fill: #d1d3d6;
      }

      .cls-1, .cls-2, .cls-3, .cls-4, .cls-5 {
        stroke-width: 0px;
      }

      .cls-2 {
        fill: #d1d4da;
      }

      .cls-3 {
        fill: #fff;
      }

      .cls-4 {
        fill: #f6b600;
      }

      .cls-5 {
        fill: #78c74f;
      }
    </style>
  </defs>
  <g id="_레이어_1-2" data-name="레이어 1">
    <g>
      <polygon class="cls-5" points="0 8.75 23.46 8.75 46.91 8.75 46.91 36.52 46.91 64.29 23.46 64.29 0 64.29 0 36.52 0 8.75"/>
      <g>
        <path class="cls-3" d="m46.91,5.25c0-.06,0-.12-.02-.18s-.04-.11-.08-.16c-.23-.32-1.15-1.09-2.7-1.78s-3.71-1.3-6.43-1.3H5.06v57.43h34.38s1.05-.06,2.39.11,2.97.54,4.14,1.41c.2.15.44.16.63.07s.33-.28.33-.53V5.25Z"/>
        <path class="cls-1" d="m46.33,62.74c-.26,0-.51-.04-.76-.12s-.48-.2-.7-.37c-.73-.55-1.81-.85-2.84-1.02s-2-.18-2.51-.15h-18.14s-18.14,0-18.14,0V.01h34.44c2.95,0,5.39.66,7.2,1.47s2.99,1.77,3.42,2.38l.17.24.17.24.05.46.05.46v55.08c0,.46-.13.89-.35,1.26s-.56.68-.96.88c-.17.09-.35.15-.53.19s-.37.06-.55.06Zm-6.33-5.31c.5,0,1.29.03,2.19.15s1.92.33,2.9.7V5.76c-.41-.32-1.26-.85-2.51-1.29s-2.9-.82-4.91-.82H6.88v53.79h32.56s.1,0,.2,0,.22,0,.37,0Z"/>
      </g>
      <polygon class="cls-2" points="40.78 15.32 26.56 15.32 12.34 15.32 12.34 13.63 12.34 11.95 26.56 11.95 40.78 11.95 40.78 13.63 40.78 15.32"/>
      <polygon class="cls-2" points="40.78 22.63 26.56 22.63 12.34 22.63 12.34 20.94 12.34 19.26 26.56 19.26 40.78 19.26 40.78 20.94 40.78 22.63"/>
      <polygon class="cls-2" points="40.78 29.94 26.56 29.94 12.34 29.94 12.34 28.26 12.34 26.57 26.56 26.57 40.78 26.57 40.78 28.26 40.78 29.94"/>
      <polygon class="cls-2" points="40.78 37.26 26.56 37.26 12.34 37.26 12.34 35.57 12.34 33.89 26.56 33.89 40.78 33.89 40.78 35.57 40.78 37.26"/>
      <polygon class="cls-2" points="40.78 44.57 26.56 44.57 12.34 44.57 12.34 42.89 12.34 41.2 26.56 41.2 40.78 41.2 40.78 42.89 40.78 44.57"/>
      <polygon class="cls-2" points="40.78 51.88 26.56 51.88 12.34 51.88 12.34 50.2 12.34 48.51 26.56 48.51 40.78 48.51 40.78 50.2 40.78 51.88"/>
      <polygon class="cls-5" points="93.83 8.75 70.37 8.75 46.91 8.75 46.91 36.52 46.91 64.29 70.37 64.29 93.83 64.29 93.83 36.52 93.83 8.75"/>
      <g>
        <path class="cls-3" d="m46.91,5.25c0-.06,0-.12.02-.18s.04-.11.08-.16c.23-.32,1.15-1.09,2.7-1.78s3.71-1.3,6.43-1.3h16.31s16.31,0,16.31,0v28.71s0,28.71,0,28.71h-17.19s-17.19,0-17.19,0c0,0-1.05-.06-2.39.11-1.34.16-2.97.54-4.14,1.41-.2.15-.44.16-.63.07s-.33-.28-.33-.53v-27.54s0-27.54,0-27.54Z"/>
        <path class="cls-1" d="m47.49,62.74c-.18,0-.37-.02-.55-.06s-.36-.11-.53-.19c-.41-.2-.73-.51-.96-.88s-.35-.8-.35-1.26V4.67l.22-.41.22-.41c.43-.6,1.6-1.56,3.41-2.37S53.2.01,56.15.01h34.44v61.07h-36.2c-.54-.02-1.53,0-2.57.15s-2.13.45-2.86,1c-.22.16-.46.29-.71.37s-.51.12-.77.12Zm1.24-56.96v52.5c1.27-.48,2.61-.69,3.69-.78s1.88-.06,2.07-.05h16.23s16.23,0,16.23,0V3.65h-30.8c-1.99,0-3.63.36-4.87.81s-2.11.98-2.54,1.32Z"/>
      </g>
      <polygon class="cls-2" points="53.05 15.32 67.27 15.32 81.49 15.32 81.49 13.63 81.49 11.95 67.27 11.95 53.05 11.95 53.05 13.63 53.05 15.32"/>
      <polygon class="cls-2" points="53.05 22.63 67.27 22.63 81.49 22.63 81.49 20.94 81.49 19.26 67.27 19.26 53.05 19.26 53.05 20.94 53.05 22.63"/>
      <polygon class="cls-2" points="53.05 29.94 67.27 29.94 81.49 29.94 81.49 28.26 81.49 26.57 67.27 26.57 53.05 26.57 53.05 28.26 53.05 29.94"/>
      <polygon class="cls-2" points="53.05 37.26 67.27 37.26 81.49 37.26 81.49 35.57 81.49 33.89 67.27 33.89 53.05 33.89 53.05 35.57 53.05 37.26"/>
      <polygon class="cls-2" points="53.05 44.57 67.27 44.57 81.49 44.57 81.49 42.89 81.49 41.2 67.27 41.2 53.05 41.2 53.05 42.89 53.05 44.57"/>
      <polygon class="cls-2" points="53.05 51.88 67.27 51.88 81.49 51.88 81.49 50.2 81.49 48.51 67.27 48.51 53.05 48.51 53.05 50.2 53.05 51.88"/>
      <polygon class="cls-4" points="61.21 73.82 58.75 73.82 56.29 73.82 56.29 36.91 56.29 0 58.75 0 61.21 0 61.21 36.91 61.21 73.82"/>
    </g>
  </g>
</svg>