<?xml version="1.0" encoding="utf-8"?>
<!-- Generator: Adobe Illustrator 27.9.4, SVG Export Plug-In . SVG Version: 9.03 Build 54784)  -->
<svg version="1.1" id="_레이어_2" xmlns="http://www.w3.org/2000/svg" xmlns:xlink="http://www.w3.org/1999/xlink" x="0px"
	 y="0px" viewBox="0 0 93.8 73.8" style="enable-background:new 0 0 93.8 73.8;" xml:space="preserve">
<style type="text/css">
	.st0{fill:#78C74F;}
	.st1{fill:#FFFFFF;}
	.st2{fill:#C5E8B1;}
	.st3{fill:#D1D4DA;}
	.st4{fill:#F6B600;}
</style>
<g id="_레이어_1-2">
	<g>
		<polygon class="st0" points="0,8.8 23.5,8.8 46.9,8.8 46.9,36.5 46.9,64.3 23.5,64.3 0,64.3 0,36.5 		"/>
		<g>
			<path class="st1" d="M46.9,5.2c0-0.1,0-0.1,0-0.2s0-0.1-0.1-0.2c-0.2-0.3-1.2-1.1-2.7-1.8s-3.7-1.3-6.4-1.3H5.1v57.4h34.4
				c0,0,1-0.1,2.4,0.1s3,0.5,4.1,1.4c0.2,0.2,0.4,0.2,0.6,0.1s0.3-0.3,0.3-0.5L46.9,5.2L46.9,5.2z"/>
			<path class="st2" d="M46.3,62.7c-0.3,0-0.5,0-0.8-0.1s-0.5-0.2-0.7-0.4c-0.7-0.5-1.8-0.8-2.8-1s-2-0.2-2.5-0.2H21.4H3.2V0h34.4
				c3,0,5.4,0.7,7.2,1.5s3,1.8,3.4,2.4l0.2,0.2l0.2,0.2l0,0.5l0,0.5v55.1c0,0.5-0.1,0.9-0.3,1.3s-0.6,0.7-1,0.9
				c-0.2,0.1-0.3,0.2-0.5,0.2S46.5,62.7,46.3,62.7L46.3,62.7z M40,57.4c0.5,0,1.3,0,2.2,0.2s1.9,0.3,2.9,0.7V5.8
				c-0.4-0.3-1.3-0.8-2.5-1.3s-2.9-0.8-4.9-0.8H6.9v53.8h32.6c0,0,0.1,0,0.2,0S39.9,57.4,40,57.4L40,57.4z"/>
		</g>
		<polygon class="st3" points="40.8,15.3 26.6,15.3 12.3,15.3 12.3,13.6 12.3,11.9 26.6,11.9 40.8,11.9 40.8,13.6 		"/>
		<polygon class="st3" points="40.8,22.6 26.6,22.6 12.3,22.6 12.3,20.9 12.3,19.3 26.6,19.3 40.8,19.3 40.8,20.9 		"/>
		<polygon class="st3" points="40.8,29.9 26.6,29.9 12.3,29.9 12.3,28.3 12.3,26.6 26.6,26.6 40.8,26.6 40.8,28.3 		"/>
		<polygon class="st3" points="40.8,37.3 26.6,37.3 12.3,37.3 12.3,35.6 12.3,33.9 26.6,33.9 40.8,33.9 40.8,35.6 		"/>
		<polygon class="st3" points="40.8,44.6 26.6,44.6 12.3,44.6 12.3,42.9 12.3,41.2 26.6,41.2 40.8,41.2 40.8,42.9 		"/>
		<polygon class="st3" points="40.8,51.9 26.6,51.9 12.3,51.9 12.3,50.2 12.3,48.5 26.6,48.5 40.8,48.5 40.8,50.2 		"/>
		<polygon class="st0" points="93.8,8.8 70.4,8.8 46.9,8.8 46.9,36.5 46.9,64.3 70.4,64.3 93.8,64.3 93.8,36.5 		"/>
		<g>
			<path class="st1" d="M46.9,5.2c0-0.1,0-0.1,0-0.2S47,5,47,4.9c0.2-0.3,1.2-1.1,2.7-1.8s3.7-1.3,6.4-1.3h16.3h16.3v28.7v28.7H71.6
				H54.4c0,0-1-0.1-2.4,0.1c-1.3,0.2-3,0.5-4.1,1.4c-0.2,0.2-0.4,0.2-0.6,0.1s-0.3-0.3-0.3-0.5V32.8L46.9,5.2L46.9,5.2z"/>
			<path class="st2" d="M47.5,62.7c-0.2,0-0.4,0-0.5-0.1s-0.4-0.1-0.5-0.2c-0.4-0.2-0.7-0.5-1-0.9s-0.3-0.8-0.3-1.3V4.7l0.2-0.4
				l0.2-0.4C46,3.2,47.1,2.3,49,1.5S53.2,0,56.2,0h34.4v61.1H54.4c-0.5,0-1.5,0-2.6,0.2s-2.1,0.5-2.9,1c-0.2,0.2-0.5,0.3-0.7,0.4
				S47.7,62.7,47.5,62.7L47.5,62.7z M48.7,5.8v52.5c1.3-0.5,2.6-0.7,3.7-0.8s1.9-0.1,2.1,0h16.2h16.2V3.7H56.1c-2,0-3.6,0.4-4.9,0.8
				S49.2,5.4,48.7,5.8L48.7,5.8z"/>
		</g>
		<polygon class="st3" points="53,15.3 67.3,15.3 81.5,15.3 81.5,13.6 81.5,11.9 67.3,11.9 53,11.9 53,13.6 		"/>
		<polygon class="st3" points="53,22.6 67.3,22.6 81.5,22.6 81.5,20.9 81.5,19.3 67.3,19.3 53,19.3 53,20.9 		"/>
		<polygon class="st3" points="53,29.9 67.3,29.9 81.5,29.9 81.5,28.3 81.5,26.6 67.3,26.6 53,26.6 53,28.3 		"/>
		<polygon class="st3" points="53,37.3 67.3,37.3 81.5,37.3 81.5,35.6 81.5,33.9 67.3,33.9 53,33.9 53,35.6 		"/>
		<polygon class="st3" points="53,44.6 67.3,44.6 81.5,44.6 81.5,42.9 81.5,41.2 67.3,41.2 53,41.2 53,42.9 		"/>
		<polygon class="st3" points="53,51.9 67.3,51.9 81.5,51.9 81.5,50.2 81.5,48.5 67.3,48.5 53,48.5 53,50.2 		"/>
		<polygon class="st4" points="61.2,73.8 58.8,73.8 56.3,73.8 56.3,36.9 56.3,0 58.8,0 61.2,0 61.2,36.9 		"/>
	</g>
</g>
</svg>
