<?xml version="1.0" encoding="UTF-8"?>
<svg id="_레이어_2" data-name="레이어 2" xmlns="http://www.w3.org/2000/svg" viewBox="0 0 66.96 66.96">
  <defs>
    <style>
      .cls-1 {
        fill: #fff;
      }

      .cls-1, .cls-2 {
        stroke-width: 0px;
      }

      .cls-2 {
        fill: #aaa;
      }
    </style>
  </defs>
  <g id="_레이어_1-2" data-name="레이어 1">
    <g>
      <circle class="cls-2" cx="33.48" cy="33.48" r="33.48"/>
      <g>
        <path class="cls-1" d="m41.89,55.22h-16.81c-7.35,0-13.33-5.98-13.33-13.33v-16.81c0-7.35,5.98-13.33,13.33-13.33h16.81c7.35,0,13.33,5.98,13.33,13.33v16.81c0,7.35-5.98,13.33-13.33,13.33ZM25.07,15.74c-5.15,0-9.33,4.19-9.33,9.33v16.81c0,5.15,4.19,9.33,9.33,9.33h16.81c5.15,0,9.33-4.19,9.33-9.33v-16.81c0-5.15-4.19-9.33-9.33-9.33h-16.81Z"/>
        <path class="cls-1" d="m33.63,44.48c-6.15,0-11.15-5-11.15-11.15s5-11.15,11.15-11.15,11.15,5,11.15,11.15-5,11.15-11.15,11.15Zm0-18.3c-3.94,0-7.15,3.21-7.15,7.15s3.21,7.15,7.15,7.15,7.15-3.21,7.15-7.15-3.21-7.15-7.15-7.15Z"/>
        <circle class="cls-1" cx="44.59" cy="20.81" r="2.7"/>
      </g>
    </g>
  </g>
</svg>