<?xml version="1.0" encoding="UTF-8"?>
<svg id="_레이어_2" data-name="레이어 2" xmlns="http://www.w3.org/2000/svg" viewBox="0 0 630.2 206.23">
  <defs>
    <style>
      .cls-1 {
        fill: #eb5000;
      }

      .cls-1, .cls-2, .cls-3, .cls-4, .cls-5, .cls-6 {
        stroke-width: 0px;
      }

      .cls-2 {
        fill: #8d59d5;
      }

      .cls-3 {
        fill: #feb60c;
      }

      .cls-4 {
        fill: #8c5cd4;
      }

      .cls-5 {
        fill: #e85505;
      }

      .cls-6 {
        fill: #1694d1;
      }
    </style>
  </defs>
  <g id="_레이어_1-2" data-name="레이어 1">
    <g>
      <polygon class="cls-2" points="443.83 164.07 479.07 164.07 479.07 200.42 495.18 200.42 495.18 164.07 530.17 164.07 530.17 150.44 443.83 150.44 443.83 164.07"/>
      <g>
        <path class="cls-2" d="m572.89,128.53c0,3.44-.88,6.26-2.51,8.14-1.81,1.92-4.34,2.85-7.73,2.85-3.07,0-5.28-.93-7-2.99-1.76-1.76-2.62-4.38-2.62-8,0-3.27.91-5.79,2.71-7.47,1.83-1.59,4.28-2.4,7.29-2.4,3.2,0,5.61.86,7.34,2.58,1.68,1.92,2.53,4.38,2.53,7.3m-39.45-9.87h6.65c-.03.06-.06.12-.09.19-1.57,2.88-2.33,6.01-2.33,9.56,0,7.58,2.36,13.37,7.21,17.71,4.71,4.34,10.82,6.54,18.16,6.54,3.68,0,6.97-.54,10.05-1.65,2.92-.97,5.54-2.57,7.97-4.88,2.27-2.01,4.08-4.53,5.54-7.71,1.28-2.82,1.93-6.19,1.93-10.01,0-3.56-.76-6.69-2.33-9.56l-.06-.1s-.04-.06-.07-.09h6.18v-14.01h-58.79v14.01Z"/>
        <path class="cls-2" d="m547.28,100.5c3.82,1.19,8.56,1.77,14.5,1.77h22.76v-13.26h-21.77c-5.19,0-9.07-.51-11.91-1.57-3-.96-5.24-2.27-6.85-4.01l-.67-.72-7.66,10.78.48.48c3.19,3.19,6.94,5.39,11.12,6.53"/>
      </g>
      <polygon class="cls-2" points="614.81 114.82 614.81 90.38 599.32 90.38 599.32 153.77 614.81 153.77 614.81 128.45 630.2 128.45 630.2 114.82 614.81 114.82"/>
      <path class="cls-1" d="m513.3,120.13c-3.07-2.95-6.72-5.62-10.89-7.96-3.25-1.5-6.25-2.63-9.14-3.44,1.45-5.1,2.16-10.12,2.16-15.32v-4.15h-15.74v3.9c0,5.55-.9,10.54-2.66,14.82-1.83,4.29-4.28,7.92-7.26,10.78-3.22,3.09-6.89,5.5-10.95,7.17-4.35,1.99-8.82,3.31-13.69,4.03l-.68.1v13.97l.87-.08c8.31-.78,15.58-2.64,21.59-5.53,6.07-2.72,11.34-6.41,15.65-10.97,1.74-1.87,3.26-3.75,4.61-5.72,2.62.63,5.06,1.45,7.21,2.41,2.96,1.6,5.65,3.46,7.79,5.36,2.16,1.92,3.86,3.98,5.02,6.07,1.05,2.21,1.67,4.26,1.78,5.86v4.64h14.5v-3.9c0-3.73-.94-7.64-2.81-11.65-1.92-3.84-4.32-7.23-7.36-10.4"/>
      <polygon class="cls-1" points="554.74 157.51 554.74 171.39 599.32 171.39 599.32 202.41 614.93 202.41 614.93 157.51 554.74 157.51"/>
      <path class="cls-5" d="m6.99,10.46c-1.07-1.01-1.12-2.73-.09-3.87,1.03-1.12,2.73-1.23,3.81-.22l9.77,9.52c1.08,1,1.12,2.73.09,3.85-1.03,1.14-2.73,1.24-3.81.25L6.99,10.46Z"/>
      <path class="cls-6" d="m2.35,26.08c-1.46-.18-2.5-1.55-2.33-3.07.18-1.52,1.5-2.6,2.95-2.41l10.55,1.69c1.46.17,2.5,1.56,2.32,3.07-.17,1.52-1.5,2.59-2.95,2.41l-10.54-1.69Z"/>
      <path class="cls-4" d="m21.58,3.23c-.28-1.44.71-2.86,2.2-3.17,1.5-.3,2.93.63,3.22,2.08l1.67,10.54c.28,1.44-.71,2.86-2.21,3.17-1.49.31-2.93-.62-3.21-2.05l-1.67-10.56Z"/>
      <path class="cls-6" d="m74.43,40.82h9.07v7.09h-9.07v22.29l-8.18-.06V22.47h8.18v18.35Zm-13.22-15.89v12.28c-.15,3.87-.43,8.22-1.02,11.29-.66,3.06-1.61,5.84-2.93,8.18-1.39,2.42-3.14,4.46-5.26,6.07-2.19,1.76-4.9,3.07-8.04,4.09v-7.82c1.47-.73,2.7-1.6,3.88-2.63,1.09-.94,2.04-2.19,2.78-3.8.73-1.53,1.24-3.44,1.68-5.77.36-2.2.58-5.88.58-9.23v-5.34h-7.02v3.51c-.14,7.74-1.9,14.64-5.26,18.8-3.43,4.24-8.04,6.95-13.81,8.11v-7.31c1.46-.5,2.85-1.16,4.16-1.98,1.24-.73,2.34-1.83,3.36-3.14.95-1.31,1.75-3.07,2.34-5.19.59-2.04.87-5.65.87-8.95v-3.87h-10.74v-7.32h34.42Z"/>
      <rect class="cls-5" x="86.91" y="63.18" width="49.92" height="7.02"/>
      <rect class="cls-4" x="141.65" y="63.18" width="49.92" height="7.02"/>
      <path class="cls-5" d="m131.45,43.77l1.22,7.05c-1.17.95-2.57,1.86-4.28,2.67-1.77.9-14.81,7.68-28.14,3.55-1.69-.52-3.54-1.92-4.64-3.13-1.16-1.14-1.87-2.65-2.19-4.52l-1.69-9.74,27.64-4.79-.97-5.61-27.57,4.78-1.22-7.05,35.85-6.21,3.35,19.36-27.57,4.77.54,3.12c.13.72,1.06,1.66,1.86,2.06,5.9,2.97,17.99-1.35,19.66-1.93,1.68-.59,3.19-1.3,4.61-2.07,1.37-.68,2.57-1.4,3.53-2.31"/>
      <path class="cls-4" d="m184.73,49.37l-1.02,7.09c-1.41.53-3.02.97-4.9,1.21-1.97.31-16.45,2.71-27.86-5.33-1.44-1.01-2.77-2.92-3.44-4.42-.76-1.43-.96-3.09-.69-4.97l1.41-9.77,27.77,3.99.81-5.62-27.7-3.99,1.03-7.08,36.01,5.18-2.81,19.45-27.69-3.99-.45,3.13c-.11.72.49,1.9,1.12,2.54,4.68,4.65,17.52,4.29,19.3,4.25,1.78-.04,3.43-.25,5.02-.54,1.51-.22,2.89-.54,4.07-1.1"/>
      <path class="cls-3" d="m215.56,127.43c0,4-.67,7.47-2,10.53-1.47,3.2-3.33,5.87-5.73,8.13-2.4,2.27-5.07,4-8.27,5.07-3.33,1.33-6.8,1.87-10.54,1.87s-7.33-.53-10.53-1.87c-3.33-1.07-6.13-2.8-8.4-5.07-2.4-2.27-4.26-4.93-5.46-8.13-1.34-3.07-2-6.53-2-10.53,0-3.73.66-6.93,2.13-9.87.27-.53.53-1.2.93-1.87h-7.6v-13.33h61.46v13.33h-7.33l1.07,1.87c1.46,2.93,2.26,6.13,2.26,9.87m-54.8-38.39l7.2-10.14c1.87,2,4.4,3.47,7.73,4.53,3.2,1.2,7.47,1.73,13.07,1.73h22.53v12.53h-23.6c-5.87,0-11.06-.53-15.33-1.87-4.4-1.2-8.27-3.46-11.6-6.8m39.73,38.53c0-3.47-1.06-6.4-2.93-8.53-2-2.13-4.8-3.33-8.54-3.33-3.46,0-6.26,1.07-8.4,3.07-2.13,2.14-3.2,5.07-3.2,8.8,0,4,.93,7.07,3.07,9.47,2,2.4,4.66,3.6,8.13,3.6,3.87,0,6.8-1.2,8.93-3.6,1.87-2.27,2.93-5.47,2.93-9.47m44.67-14.8h16.53v13.2h-16.53v35.85h-15.07v-76.65h15.07v27.6Z"/>
      <path class="cls-3" d="m344.09,188.9v12.66c-2.4.8-5.2,1.6-8.27,2.4-3.2.53-6.4,1.06-9.73,1.47-3.47.4-8.34.66-11.81.8-3.6,0-7.07-.26-10.4-.67-3.47-.53-6.53-1.2-9.47-2-3.06-1.06-5.73-2.27-7.86-3.73-2.14-1.6-3.87-3.6-5.07-5.73-1.33-2.27-2-7.77-2-10.97v-12.53h45.8v-8.39h-45.67v-12.8h60.87v33.72h-45.54v4.17c0,1.87,1.6,3.33,4.93,4.4,3.2,1.07,7.33,1.73,12.26,2,4.8.13,11.41-.13,17.01-.8,5.47-.8,10.4-2.13,14.93-4"/>
      <path class="cls-6" d="m245.76,179.94v13.33c-5.38,3.87-13.4,6.54-20.66,8.13-7.26,1.33-16.38,1.46-22.83.27-6.72-1.33-12.23-4.13-16.81-8.4-4.57-4.27-6.86-10.4-6.86-18.13v-11.81h15.2v13.67c0,3.2,1.21,5.73,3.9,7.6,2.55,2.13,6.9,3.33,11.47,3.86,4.3.53,10.69.13,16.61-1.2,5.78-1.2,13.54-3.6,19.99-7.33"/>
      <path class="cls-6" d="m324.1,129.34c2.66-3.47,4.4-6.8,4.93-10.27.53-3.33.8-7.47.8-12.26v-8.71h-54.88v-12.93h69.68v20.71c-.13,2.66-.13,5.2-.13,7.46-.13,2.4-.27,4.53-.53,6.4-.27,2-.8,3.87-1.47,5.47-.67,1.6-1.6,2.93-2.67,4.13h16.53v12.8h-91.06v-12.8h58.8Z"/>
      <circle class="cls-1" cx="398.89" cy="135.64" r="6.56"/>
    </g>
  </g>
</svg>