<?xml version="1.0" encoding="UTF-8"?>
<svg id="_레이어_2" data-name="레이어 2" xmlns="http://www.w3.org/2000/svg" viewBox="0 0 75.27 112.1">
  <defs>
    <style>
      .cls-1 {
        fill: #2fb;
        stroke-width: 0px;
      }
    </style>
  </defs>
  <g id="_레이어_1-2" data-name="레이어 1">
    <path class="cls-1" d="m0,80.05c0-5.8,1.96-11.28,5.22-15.92s7.83-8.45,13.05-10.91c-3.84-2.1-7.29-5.18-9.77-9.08s-4.01-8.61-4.01-13.98c0-9.06,3.41-16.6,9.26-21.88S27.92,0,37.71,0s18.09,3.01,23.95,8.28,9.26,12.82,9.26,21.88c0,5.37-1.52,10.08-4.01,13.98s-5.93,6.98-9.77,9.08c5.22,2.47,9.75,6.24,12.98,10.86s5.15,10.1,5.15,15.97c0,9.35-3.73,17.37-10.3,23.04s-15.95,9.01-27.26,9.01-20.74-3.34-27.34-9.01S0,89.4,0,80.05Zm15.23,0c0,5.58,2.28,10.33,6.24,13.69s9.57,5.31,16.24,5.31,12.25-1.96,16.17-5.31,6.16-8.1,6.16-13.69c0-5.95-2.39-10.99-6.38-14.54s-9.57-5.62-15.95-5.62-12,2.07-16.02,5.62-6.45,8.59-6.45,14.54Zm4.5-49.89c0,5,1.74,9.17,4.86,12.09s7.61,4.59,13.12,4.59,9.93-1.67,13.07-4.59,4.91-7.09,4.91-12.09c0-5.29-1.63-9.57-4.7-12.53s-7.56-4.59-13.29-4.59-10.22,1.63-13.29,4.59-4.7,7.23-4.7,12.53Z"/>
  </g>
</svg>