<?xml version="1.0" encoding="UTF-8"?>
<svg id="_레이어_2" data-name="레이어 2" xmlns="http://www.w3.org/2000/svg" xmlns:xlink="http://www.w3.org/1999/xlink" viewBox="0 0 154.3 179.68">
  <defs>
    <style>
      .cls-1 {
        fill: #ffec51;
      }

      .cls-1, .cls-2, .cls-3, .cls-4, .cls-5 {
        stroke-width: 0px;
      }

      .cls-2 {
        fill: none;
      }

      .cls-3 {
        fill: #29b5b2;
      }

      .cls-4 {
        fill: #fff;
      }

      .cls-5 {
        fill: #fabe00;
      }

      .cls-6 {
        clip-path: url(#clippath);
      }
    </style>
    <clipPath id="clippath">
      <rect class="cls-2" x="97.06" y="120.49" width="28.66" height="16.87"/>
    </clipPath>
  </defs>
  <g id="_레이어_1-2" data-name="레이어 1">
    <g>
      <path class="cls-3" d="m0,102.53c0,42.61,34.54,77.15,77.15,77.15s77.15-34.54,77.15-77.15S119.76,25.38,77.15,25.38V0l-44.22,38.91C11.92,56.06,0,78.15,0,102.53"/>
      <g>
        <path class="cls-1" d="m32.42,61.23c-.48-.45-.5-1.22-.04-1.73.46-.5,1.22-.55,1.7-.1l4.37,4.26c.48.45.5,1.22.04,1.72-.46.51-1.22.55-1.7.11l-4.37-4.26Z"/>
        <path class="cls-1" d="m30.34,68.22c-.65-.08-1.12-.69-1.04-1.37.08-.68.67-1.16,1.32-1.08l4.72.76c.65.08,1.12.7,1.04,1.37-.08.68-.67,1.16-1.32,1.08l-4.71-.75Z"/>
        <path class="cls-1" d="m38.94,58c-.12-.64.32-1.28.99-1.42.67-.14,1.31.28,1.44.93l.74,4.71c.12.64-.32,1.28-.99,1.42-.67.14-1.31-.28-1.43-.92l-.74-4.72Z"/>
        <path class="cls-1" d="m62.58,74.81h4.06v3.17h-4.06v9.97l-3.66-.03v-21.31h3.66v8.21Zm-5.91-7.11v5.49c-.07,1.73-.19,3.67-.46,5.05-.29,1.37-.72,2.61-1.31,3.66-.62,1.08-1.4,1.99-2.35,2.71-.98.79-2.19,1.37-3.6,1.83v-3.5c.66-.32,1.21-.72,1.73-1.18.49-.42.91-.98,1.24-1.7.33-.68.56-1.54.75-2.58.16-.98.26-2.63.26-4.13v-2.39h-3.14v1.57c-.06,3.46-.85,6.55-2.35,8.41-1.54,1.89-3.59,3.11-6.18,3.63v-3.27c.65-.23,1.27-.52,1.86-.88.55-.33,1.05-.82,1.5-1.4.43-.59.78-1.37,1.05-2.32.26-.91.39-2.53.39-4v-1.73h-4.8v-3.27h15.39Z"/>
        <rect class="cls-1" x="68.16" y="84.81" width="22.32" height="3.14"/>
        <rect class="cls-1" x="92.63" y="84.81" width="22.32" height="3.14"/>
        <path class="cls-1" d="m88.07,76.13l.55,3.15c-.52.42-1.15.83-1.92,1.19-.79.4-6.62,3.43-12.58,1.59-.75-.23-1.58-.86-2.07-1.4-.52-.51-.83-1.19-.98-2.02l-.75-4.35,12.36-2.14-.44-2.51-12.33,2.14-.55-3.15,16.03-2.78,1.5,8.66-12.33,2.13.24,1.39c.06.32.47.74.83.92,2.64,1.33,8.04-.6,8.79-.87.75-.26,1.43-.58,2.06-.92.61-.3,1.15-.63,1.58-1.03"/>
        <path class="cls-1" d="m111.9,78.63l-.46,3.17c-.63.24-1.35.43-2.19.54-.88.14-7.36,1.21-12.46-2.39-.65-.45-1.24-1.31-1.54-1.98-.34-.64-.43-1.38-.31-2.22l.63-4.37,12.42,1.79.36-2.51-12.38-1.79.46-3.17,16.1,2.32-1.25,8.7-12.38-1.79-.2,1.4c-.05.32.22.85.5,1.13,2.09,2.08,7.83,1.92,8.63,1.9.79-.02,1.54-.11,2.25-.24.68-.1,1.29-.24,1.82-.49"/>
      </g>
      <g>
        <path class="cls-5" d="m48.91,114.34c0,1.3-.22,2.42-.65,3.42-.48,1.04-1.08,1.9-1.86,2.64-.78.73-1.64,1.3-2.68,1.64-1.08.43-2.2.6-3.42.6s-2.38-.17-3.41-.6c-1.08-.35-1.99-.91-2.72-1.64-.78-.73-1.38-1.6-1.77-2.64-.43-.99-.65-2.12-.65-3.42,0-1.21.22-2.25.69-3.2.09-.17.17-.39.3-.61h-2.46v-4.32h19.93v4.32h-2.38l.35.61c.47.95.73,1.99.73,3.2m-17.77-12.45l2.34-3.29c.61.65,1.43,1.12,2.51,1.47,1.04.39,2.42.56,4.24.56h7.31v4.06h-7.65c-1.9,0-3.59-.17-4.97-.61-1.43-.39-2.68-1.12-3.76-2.2m12.88,12.49c0-1.12-.35-2.07-.95-2.77-.65-.69-1.56-1.08-2.77-1.08-1.12,0-2.03.35-2.72.99-.69.69-1.04,1.64-1.04,2.85,0,1.3.3,2.29.99,3.07.65.78,1.51,1.17,2.64,1.17,1.25,0,2.21-.39,2.9-1.17.61-.73.95-1.77.95-3.07m14.48-4.8h5.36v4.28h-5.36v11.62h-4.88v-24.85h4.88v8.95Z"/>
        <path class="cls-5" d="m90.59,134.27v4.11c-.78.26-1.69.52-2.68.78-1.04.17-2.07.35-3.15.48-1.12.13-2.71.22-3.83.26-1.17,0-2.29-.09-3.37-.22-1.12-.17-2.12-.39-3.07-.65-.99-.35-1.86-.73-2.55-1.21-.69-.52-1.25-1.17-1.64-1.86-.43-.74-.65-2.52-.65-3.56v-4.06h14.85v-2.72h-14.81v-4.15h19.74v10.93h-14.76v1.35c0,.61.52,1.08,1.6,1.43,1.04.35,2.38.56,3.98.65,1.56.04,3.7-.04,5.51-.26,1.77-.26,3.37-.69,4.84-1.3"/>
        <path class="cls-4" d="m58.71,131.37v4.32c-1.74,1.25-4.35,2.12-6.7,2.64-2.35.43-5.31.47-7.4.09-2.18-.43-3.97-1.34-5.45-2.72-1.48-1.38-2.22-3.37-2.22-5.88v-3.83h4.93v4.43c0,1.04.39,1.86,1.26,2.46.83.69,2.24,1.08,3.72,1.25,1.4.17,3.47.04,5.38-.39,1.87-.39,4.39-1.17,6.48-2.38"/>
        <path class="cls-4" d="m84.1,114.96c.86-1.12,1.43-2.2,1.6-3.33.17-1.08.26-2.42.26-3.98v-2.82h-17.79v-4.19h22.59v6.72c-.04.86-.04,1.68-.04,2.42-.04.78-.09,1.47-.17,2.07-.09.65-.26,1.25-.48,1.77-.22.52-.52.95-.86,1.34h5.36v4.15h-29.52v-4.15h19.06Z"/>
        <g class="cls-6">
          <polygon class="cls-4" points="97.39 125.24 108.82 125.24 108.82 137.03 114.04 137.03 114.04 125.24 125.39 125.24 125.39 120.82 97.39 120.82 97.39 125.24"/>
        </g>
        <path class="cls-5" d="m119.92,111c-1-.96-2.18-1.82-3.53-2.58-1.05-.49-2.02-.85-2.96-1.11.47-1.65.7-3.28.7-4.97v-1.34h-5.1v1.26c0,1.8-.29,3.42-.86,4.81-.59,1.39-1.39,2.57-2.35,3.5-1.04,1-2.23,1.78-3.55,2.32-1.41.64-2.86,1.07-4.44,1.31l-.22.03v4.53l.28-.03c2.7-.25,5.05-.86,7-1.79,1.97-.88,3.68-2.08,5.07-3.56.57-.61,1.06-1.22,1.49-1.86.85.2,1.64.47,2.34.78.96.52,1.83,1.12,2.53,1.74.7.62,1.25,1.29,1.63,1.97.34.72.54,1.38.58,1.9v1.5h4.7v-1.26c0-1.21-.31-2.48-.91-3.78-.62-1.24-1.4-2.34-2.39-3.37"/>
      </g>
    </g>
  </g>
</svg>