<?xml version="1.0" encoding="UTF-8"?>
<svg id="_레이어_2" data-name="레이어 2" xmlns="http://www.w3.org/2000/svg" viewBox="0 0 91.94 87.88">
  <defs>
    <style>
      .cls-1 {
        fill: #ab71ff;
        stroke-width: 0px;
      }
    </style>
  </defs>
  <g id="_레이어_1-2" data-name="레이어 1">
    <path class="cls-1" d="m0,28.71v-13.05h38.29V0h15.23v15.66h38.43v13.05H0Zm6.96,33.06c0-8.05,3.88-14.57,10.7-19.09s16.57-7.02,28.32-7.02,21.5,2.5,28.31,7.02,10.69,11.04,10.69,19.09-3.88,14.65-10.69,19.14-16.57,6.96-28.31,6.96-21.5-2.47-28.32-6.96-10.7-11.02-10.7-19.14Zm15.66,0c0,4.42,2.18,7.8,6.18,10.06s9.84,3.43,17.17,3.43,13.16-1.16,17.17-3.43,6.18-5.64,6.18-10.06-2.18-7.69-6.18-9.93-9.84-3.41-17.17-3.41-13.16,1.16-17.17,3.41-6.18,5.58-6.18,9.93Z"/>
  </g>
</svg>