<?xml version="1.0" encoding="utf-8"?>
<!-- Generator: Adobe Illustrator 27.9.4, SVG Export Plug-In . SVG Version: 9.03 Build 54784)  -->
<svg version="1.1" id="_레이어_2" xmlns="http://www.w3.org/2000/svg" xmlns:xlink="http://www.w3.org/1999/xlink" x="0px"
	 y="0px" viewBox="0 0 154.3 179.7" style="enable-background:new 0 0 154.3 179.7;" xml:space="preserve">
<style type="text/css">
	.st0{fill:#E63D90;}
	.st1{clip-path:url(#SVGID_00000075155773160215211510000006802720533069697678_);fill:#443E3B;}
	.st2{fill:#FFFFFF;}
	.st3{fill:#74C7CD;}
</style>
<g id="_레이어_1-2">
	<g>
		<path class="st0" d="M0,102.5c0,42.6,34.5,77.1,77.2,77.1s77.2-34.5,77.2-77.2s-34.5-77.1-77.2-77.1V0L32.9,38.9
			C11.9,56.1,0,78.2,0,102.5"/>
		<g>
			<defs>
				<rect id="SVGID_1_" x="-350" y="-214.3" width="1320.9" height="739.8"/>
			</defs>
			<clipPath id="SVGID_00000048487821170823859700000011189792375573779867_">
				<use xlink:href="#SVGID_1_"  style="overflow:visible;"/>
			</clipPath>
			<path style="clip-path:url(#SVGID_00000048487821170823859700000011189792375573779867_);fill:#443E3B;" d="M764.4,451.5
				c0,0,0.2,0.1,0.8,0.4C764.9,451.7,764.4,451.5,764.4,451.5"/>
		</g>
		<g>
			<defs>
				<rect id="SVGID_00000080917180674256404620000003546513024326313866_" x="-350" y="-214.3" width="1320.9" height="739.8"/>
			</defs>
			<clipPath id="SVGID_00000057138748555488426220000017759879463836246164_">
				<use xlink:href="#SVGID_00000080917180674256404620000003546513024326313866_"  style="overflow:visible;"/>
			</clipPath>
		</g>
	</g>
</g>
<g>
	<path class="st2" d="M39.4,64.4c0.2-0.3,0.4-0.5,0.7-0.4c0.3,0.1,0.5,0.3,0.5,0.6c0.1,0.3,0,0.7-0.1,1.1c-0.5,1.1-0.8,2.4-0.7,4.2
		c0,0.8-0.3,1.1-0.8,1.1c-0.5,0-0.8-0.4-0.8-1C38,67.9,38.4,66,39.4,64.4"/>
	<path class="st2" d="M43.8,64.5c0.4-0.4,0.8-0.4,1.3,0.1c0.5,0.5,0.5,1.1,0.1,1.6c-1.2,1.5-1.8,3.2-1.8,4.9c0,0.5-0.2,0.8-0.6,0.9
		c-0.4,0.1-0.8,0-1.1-0.4c-0.4-0.3-0.5-0.6-0.5-1C41.5,68.2,42.4,66.1,43.8,64.5"/>
	<path class="st2" d="M124.3,111.8c0,0.4-0.1,0.6-0.4,0.7c-0.3,0.1-0.5,0-0.8-0.2c-0.3-0.2-0.4-0.6-0.5-1c-0.1-1.2-0.7-2.5-1.6-3.9
		c-0.4-0.7-0.4-1.1,0.1-1.3c0.5-0.2,0.9-0.1,1.2,0.4C123.7,108.1,124.3,109.9,124.3,111.8"/>
	<path class="st2" d="M120.5,114c-0.1,0.6-0.5,0.8-1.2,0.6c-0.7-0.2-1-0.7-0.9-1.3c0.2-1.9-0.2-3.6-1-5.1c-0.3-0.5-0.2-0.8,0.1-1.1
		c0.3-0.3,0.7-0.4,1.1-0.3c0.5,0.1,0.8,0.3,0.9,0.6C120.6,109.7,120.9,111.9,120.5,114"/>
	<path class="st2" d="M48.7,70.3c0,0-0.6-2.5,2.8-2.8c3.3-0.3,13.3-0.7,15.3-0.8c2.1-0.1,7.7,0.3,9.1,4.6c1.4,4.3,0.8,11.5-3.8,12.9
		c-4.6,1.4-4.7,1.2-15.5,1.7l-5.4,0.5c0,0-2.4,0.1-2.3,2.2c0.1,2.1,0.2,4.5,2.2,4.7s11-0.8,20.2-1.2c0,0,6.4-1,6.2,2.4
		c-0.2,3.3-2.3,2.9-6.1,3.1c-3.8,0.2-19,1.7-22.9,0.9s-4.9-5.5-5.1-9.7s2.5-7.3,7.1-7.7c4.6-0.4,19-0.8,20.1-2.4s1.1-6.3-0.7-6.6
		s-4.8-0.9-15.3,0l-3.5,0.3C51.1,72.4,49.1,72.7,48.7,70.3z"/>
	<path class="st2" d="M66.4,106.5l-0.5,4.9c0,0-13.6,1.3-16.2,1.5c-2.7,0.2-4.2,1.5-3.7,3.4c0.5,2,1.4,1.9,6.6,1.5s21.3-3,21.4-0.6
		c0.2,2.4,0.4,2.7-0.7,2.8c-1.1,0.2-20.2,1.4-25.6,3.6c-5.3,2.2-2.9,10.4-2.9,10.4s1.2,7.3,7.2,6.4s26.8-6.9,26.8-6.9s4.1-1.1,4-3.1
		c-0.1-2-1.3-3.5-5.1-2.2c-3.9,1.3-25,6.6-25,6.6s-2,0.7-2.6-1.6c-0.5-2.2-1.1-3.8,0.4-4.7c1.5-1,18.4-2.6,18.4-2.6s7.7-0.9,9-2
		c1.2-1.1,2-3.9,1.2-8.4s-8.1-4.2-8.1-4.2l0.5-4.9c0,0,5.5,0.2,5.5-2.5c0.1-2.7-1.9-3-4.4-2.7c-2.4,0.3-27.1,1.4-27.1,1.4
		s-4.4,0.1-4.2,2.7c0.2,2.7,1.5,2.7,4.9,2.3C49.6,107.2,66.4,106.5,66.4,106.5z"/>
	<path class="st2" d="M103.7,90.9l-15.2,0.4c0,0-5.7-0.2-6.9,1.4c-1.2,1.6-0.4,3.9,2,4c2.5,0.2,17.9-0.9,19.9-0.2
		c0,0,0.8,0.5,0.8,1.5c0,1-0.4,2.4-1.6,2.4c-1.2,0-10.5,1.7-15.6,2.1s-6.7,4.9-6.6,8.4c0.2,3.5,0.4,11.3,6.4,11
		c6-0.3,10.2-2.7,20.2-6.1c0,0,4.7-1.6,6.4-2.2c1.7-0.6,2.1-4.4-0.5-5.1c-2.6-0.7-12.8,5-23.6,7.7c0,0-2.5,0.7-2.9-1.6
		c-0.4-2.3-1.4-5.8,1.1-6.6c2.5-0.8,10.2-1.3,14.3-1.8c4.1-0.6,7.7-1.7,7.9-6.1C109.9,95.9,109.5,90.7,103.7,90.9z"/>
	<path class="st2" d="M99,129l-10.7,2.7c0,0-3.5,1.2-4.4-1.4s1.3-2.8,4.5-3.9c3.2-1.1,23.7-6,23.7-6s4.3-1,4.6,2.3
		c0.3,3.3-6.1,3.4-12.6,5.1c0,0,1.5,12.4-2.2,16.8c-2.9,3.5-5.5,3.9-6.9,1.7s1.6-4.2,2.6-5.2C99.3,139.6,99.1,133.5,99,129z"/>
	<path class="st3" d="M104.4,87.1c0,0-1.9-2.8-3.6-2c-0.3,0.1-0.5,0.3-0.6,0.6c-0.2,0.6-0.3,1.8,2,3.3c0,0-3.7,1-2.6,3.4
		c0,0,1,1.8,4-0.6c0,0,0.3,4.2,2.8,3.7c0,0,2.2-0.7,0.2-4.1c0,0,3,1.4,3.9-0.5c0,0,0.5-2.1-3.1-2.5c0,0,1.3-1.6,0.7-3.1
		c-0.3-0.7-1-1.1-1.7-0.9C105.7,84.8,105,85.4,104.4,87.1z"/>
	<circle class="st2" cx="104.3" cy="89.7" r="1.3"/>
</g>
</svg>
