<?xml version="1.0" encoding="UTF-8"?>
<svg id="_레이어_2" data-name="레이어 2" xmlns="http://www.w3.org/2000/svg" viewBox="0 0 93.54 99.34">
  <defs>
    <style>
      .cls-1 {
        fill: #ab71ff;
        stroke-width: 0px;
      }
    </style>
  </defs>
  <g id="_레이어_1-2" data-name="레이어 1">
    <path class="cls-1" d="m0,56.27v-12.91h93.54v12.91H0ZM46.84,22.62c-3.19,0-6.09-1.12-8.19-3.06s-3.41-4.7-3.41-7.96,1.2-6.02,3.19-8.14,4.79-3.46,7.98-3.46c3.7,0,6.6,1.34,8.57,3.46s3.03,5.02,3.03,8.14-1.27,5.73-3.3,7.74-4.82,3.28-7.87,3.28Zm-11.6,65.4c0-2.9,1.16-5.73,3.14-7.83s4.77-3.48,8.03-3.48c3.7,0,6.63,1.31,8.65,3.37s3.1,4.89,3.1,7.94-1.31,5.84-3.35,7.94-4.84,3.44-7.81,3.37c-3.26,0-6.2-1.16-8.32-3.15s-3.43-4.82-3.43-8.16Z"/>
  </g>
</svg>