<?xml version="1.0" encoding="UTF-8"?>
<svg id="_레이어_2" data-name="레이어 2" xmlns="http://www.w3.org/2000/svg" viewBox="0 0 73.12 112.25">
  <defs>
    <style>
      .cls-1 {
        fill: #4aeaff;
        stroke-width: 0px;
      }
    </style>
  </defs>
  <g id="_레이어_1-2" data-name="레이어 1">
    <path class="cls-1" d="m56.99,61.92c-1.6,3.05-4.75,5.95-8.66,8.08s-8.59,3.52-13.23,3.52c-10.8,0-19.58-3.81-25.65-10.3S0,47.57,0,36.83,3.63,16.82,9.83,10.31,24.8,0,35.09,0c12.18,0,21.57,3.95,27.97,11.62s9.81,19.05,10.02,33.92c.44,25.23-3.63,41.91-10.66,52.28s-17.04,14.43-28.5,14.43c-10.22,0-17.98-3.3-23.31-8.7s-8.23-12.91-8.74-21.32h15.08c.29,5.51,2.1,9.75,5.09,12.62s7.16,4.35,12.16,4.35c7.54,0,13.41-3.55,17.42-9.99s6.15-15.75,6.22-27.28h-.87ZM36.54,13.05c-6.67,0-12,2.54-15.66,6.78s-5.66,10.19-5.66,17,2.14,12.73,5.87,16.93,9.06,6.71,15.44,6.71c6.02,0,11.31-2.5,15.1-6.71s6.07-10.11,6.07-16.93-2.03-12.76-5.69-17-8.95-6.78-15.48-6.78Z"/>
  </g>
</svg>