<?xml version="1.0" encoding="UTF-8"?>
<svg id="_레이어_2" data-name="레이어 2" xmlns="http://www.w3.org/2000/svg" viewBox="0 0 72.8 112.25">
  <defs>
    <style>
      .cls-1 {
        fill: #2fb;
        stroke-width: 0px;
      }
    </style>
  </defs>
  <g id="_레이어_1-2" data-name="레이어 1">
    <path class="cls-1" d="m36.4,0c11.75,0,20.85,5.04,27.01,14.57s9.39,23.57,9.39,41.55-3.23,32.09-9.39,41.6-15.26,14.52-27.01,14.52-20.77-5-26.96-14.52S0,74.18,0,56.12,3.26,24.11,9.44,14.57,24.73,0,36.4,0Zm0,13.05c-7.25,0-12.54,3.92-16.02,11.26s-5.15,18.11-5.15,31.81,1.67,24.47,5.15,31.81,8.77,11.26,16.02,11.26,12.54-3.92,16.02-11.26,5.15-18.11,5.15-31.81-1.67-24.47-5.15-31.81-8.77-11.26-16.02-11.26Z"/>
  </g>
</svg>