<?xml version="1.0" encoding="UTF-8"?>
<svg id="_레이어_2" data-name="레이어 2" xmlns="http://www.w3.org/2000/svg" viewBox="0 0 92.38 78.31">
  <defs>
    <style>
      .cls-1 {
        fill: #ab71ff;
        stroke-width: 0px;
      }
    </style>
  </defs>
  <g id="_레이어_1-2" data-name="레이어 1">
    <path class="cls-1" d="m0,39.16c0-10.8,4.57-20.59,12.63-27.68S32.27,0,46.26,0s25.52,4.39,33.55,11.47,12.56,16.88,12.56,27.68-4.53,20.67-12.56,27.73-19.56,11.42-33.55,11.42-25.56-4.35-33.63-11.42S0,50.03,0,39.16Zm15.23,0c0,7.47,2.86,13.99,8.18,18.65s13.07,7.45,22.86,7.45,17.44-2.79,22.73-7.45,8.16-11.18,8.16-18.65-2.86-13.92-8.16-18.6-13.02-7.5-22.73-7.5-17.55,2.83-22.86,7.5-8.18,11.2-8.18,18.6Z"/>
  </g>
</svg>