<?xml version="1.0" encoding="UTF-8"?>
<svg id="_레이어_2" data-name="레이어 2" xmlns="http://www.w3.org/2000/svg" viewBox="0 0 99.34 72.95">
  <defs>
    <style>
      .cls-1 {
        fill: #2fb;
        stroke-width: 0px;
      }
    </style>
  </defs>
  <g id="_레이어_1-2" data-name="레이어 1">
    <path class="cls-1" d="m57.72,13.05c.51,9.5,4.13,19.18,11.02,27.68s17.04,15.83,30.6,20.61c-1.31,1.96-2.68,3.88-4.06,5.8s-2.76,3.84-4.06,5.8c-8.92-3.41-17.19-8.34-24.27-14.19s-13-12.63-17.2-19.74c-4.21,7.11-10.12,13.89-17.2,19.74s-15.35,10.79-24.27,14.19l-4.13-5.8-4.13-5.8c13.27-4.71,23.67-12.11,30.76-20.67s10.86-18.27,10.86-27.63H6.53V0h86.43v13.05h-35.24Z"/>
  </g>
</svg>