<?xml version="1.0" encoding="UTF-8"?>
<svg id="_레이어_2" data-name="레이어 2" xmlns="http://www.w3.org/2000/svg" viewBox="0 0 73.09 112.1">
  <defs>
    <style>
      .cls-1 {
        fill: #4aeaff;
        stroke-width: 0px;
      }
    </style>
  </defs>
  <g id="_레이어_1-2" data-name="레이어 1">
    <path class="cls-1" d="m23.06,60.91v-13.05h11.31c7.18,0,12.54-1.7,16.12-4.62s5.35-7.05,5.35-11.91c0-5.51-1.45-10.08-4.55-13.27s-7.85-5-14.45-5c-5.73,0-10.73,1.41-14.3,4.48s-5.71,7.78-5.71,14.38H1.6c0-9.93,3.77-17.91,10.06-23.4S26.76,0,36.83,0s18.93,2.83,24.89,8.19,9.34,13.27,9.34,23.42c0,4.35-1.16,8.74-3.53,12.67s-5.96,7.41-10.82,9.95c5.73,2.39,9.83,6.13,12.49,10.6s3.9,9.7,3.9,15.06c0,10.44-3.81,18.49-10.17,23.93s-15.28,8.27-25.51,8.27c-9.43,0-18.78-2.57-25.78-8.01S0,90.35,0,78.89h15.23c0,6.6,2.25,11.64,6.15,15.03s9.44,5.13,16.04,5.13,11.57-1.6,15.06-4.75,5.38-7.87,5.38-14.1c0-6.67-2.36-11.49-6.47-14.65s-9.99-4.64-17.02-4.64h-11.31Z"/>
  </g>
</svg>