<?xml version="1.0" encoding="UTF-8"?>
<svg id="_레이어_2" data-name="레이어 2" xmlns="http://www.w3.org/2000/svg" viewBox="0 0 99.92 86.58">
  <defs>
    <style>
      .cls-1 {
        fill: #4aeaff;
        stroke-width: 0px;
      }
    </style>
  </defs>
  <g id="_레이어_1-2" data-name="레이어 1">
    <path class="cls-1" d="m58.3,31.61v.15c.94,8.41,5.47,17.11,12.71,24.76s17.17,14.25,28.91,18.45c-1.31,1.96-2.68,3.88-4.06,5.8s-2.76,3.84-4.06,5.8c-8.92-3.41-17.26-8.34-24.42-14.19s-13.14-12.63-17.35-19.74c-4.21,7.11-10.19,13.89-17.35,19.74s-15.5,10.79-24.42,14.19l-4.13-5.8-4.13-5.8c12.25-4.42,21.83-10.95,28.77-18.53s11.26-16.21,13-24.83H5.95v-13.05h36.4V0h15.37v18.56h36.4v13.05h-35.82Z"/>
  </g>
</svg>