<?xml version="1.0" encoding="UTF-8"?>
<svg id="_레이어_2" data-name="레이어 2" xmlns="http://www.w3.org/2000/svg" viewBox="0 0 75.41 110.65">
  <defs>
    <style>
      .cls-1 {
        fill: #2fb;
        stroke-width: 0px;
      }
    </style>
  </defs>
  <g id="_레이어_1-2" data-name="레이어 1">
    <path class="cls-1" d="m2.32,110.65v-10.44l17.76-19.72,17.76-19.72c6.31-7.03,10.62-12.44,13.36-17.02s3.9-8.36,3.9-12.13c0-5.58-1.74-10.22-5.02-13.47s-8.1-5.09-14.27-5.09c-6.53,0-11.71,2.36-15.26,6.49s-5.47,10.04-5.47,17.15H0c0-10.08,3.34-19.25,9.48-25.9S24.58,0,35.82,0c10.66,0,19.29,2.94,25.25,8.27s9.26,13.05,9.26,22.62c0,6.67-2.68,13.34-6.76,19.85s-9.55,12.85-15.14,18.87l-12.69,13.99-12.69,13.99h52.35v13.05H2.32Z"/>
  </g>
</svg>