<?xml version="1.0" encoding="UTF-8"?>
<svg id="_레이어_2" data-name="레이어 2" xmlns="http://www.w3.org/2000/svg" viewBox="0 0 70.77 110.65">
  <defs>
    <style>
      .cls-1 {
        fill: #2fb;
        stroke-width: 0px;
      }
    </style>
  </defs>
  <g id="_레이어_1-2" data-name="레이어 1">
    <path class="cls-1" d="m23.06,13.05l-1.45,14.07-1.45,14.07c1.16-.29,3.26-1.23,6-2.1s6.11-1.67,9.81-1.67c10.51,0,19.22,3.48,25.29,9.75s9.52,15.34,9.52,26.5-2.76,20.12-8.52,26.65-14.54,10.33-26.57,10.33c-9.14,0-17.51-2.32-23.87-7.49S1.09,89.98,0,78.6h15.23c.73,6.96,2.86,11.75,6.31,14.79s8.19,4.35,14.14,4.35c6.45,0,11.42-2.03,14.77-6.04s5.09-9.99,5.09-17.89c0-6.45-1.89-12.29-5.46-16.51s-8.83-6.83-15.57-6.83c-4.64,0-8.27.73-11.38,2.07s-5.73,3.3-8.34,5.76l-5.51-1.52-5.51-1.52,2.83-27.63L9.43,0h58.44v13.05H23.06Z"/>
  </g>
</svg>