<?xml version="1.0" encoding="UTF-8"?>
<svg id="_레이어_2" data-name="레이어 2" xmlns="http://www.w3.org/2000/svg" viewBox="0 0 73.12 112.25">
  <defs>
    <style>
      .cls-1 {
        fill: #2fb;
        stroke-width: 0px;
      }
    </style>
  </defs>
  <g id="_레이어_1-2" data-name="레이어 1">
    <path class="cls-1" d="m56.15,30.02c-.22-5.51-1.99-9.75-4.97-12.62s-7.14-4.35-12.15-4.35c-7.54,0-13.45,3.55-17.47,10.01s-6.16,15.81-6.16,27.41h.87c1.52-3.05,4.64-5.95,8.54-8.08s8.57-3.52,13.21-3.52c10.8,0,19.58,3.77,25.65,10.24s9.44,15.64,9.44,26.45-3.63,19.98-9.83,26.45-14.97,10.24-25.27,10.24c-12.11,0-21.46-3.95-27.86-11.62S.32,81.57.03,66.71C-.4,41.48,3.69,24.8,10.76,14.43S27.88,0,39.33,0c10.22,0,17.98,3.3,23.29,8.7s8.18,12.91,8.61,21.32h-15.08Zm-19.43,21.9c-6.02,0-11.35,2.5-15.17,6.71s-6.15,10.11-6.15,16.93,2.03,12.73,5.71,16.93,9.01,6.71,15.61,6.71,11.89-2.5,15.54-6.71,5.64-10.12,5.64-16.93-2.14-12.73-5.86-16.93-9.01-6.71-15.32-6.71Z"/>
  </g>
</svg>