<?xml version="1.0" encoding="UTF-8"?>
<svg id="_레이어_2" data-name="레이어 2" xmlns="http://www.w3.org/2000/svg" viewBox="0 0 539.39 119.69">
  <defs>
    <style>
      .cls-1 {
        fill: #eb5000;
      }

      .cls-1, .cls-2, .cls-3, .cls-4, .cls-5 {
        stroke-width: 0px;
      }

      .cls-2 {
        fill: #8d59d5;
      }

      .cls-3 {
        fill: #8c5cd4;
      }

      .cls-4 {
        fill: #e85505;
      }

      .cls-5 {
        fill: #1694d1;
      }
    </style>
  </defs>
  <g id="_레이어_1-2" data-name="레이어 1">
    <g>
      <polygon class="cls-2" points="353.03 81.34 388.26 81.34 388.26 117.69 404.38 117.69 404.38 81.34 439.36 81.34 439.36 67.71 353.03 67.71 353.03 81.34"/>
      <g>
        <path class="cls-2" d="m482.08,45.81c0,3.44-.88,6.26-2.51,8.14-1.81,1.92-4.34,2.85-7.73,2.85-3.07,0-5.28-.93-7-2.99-1.76-1.76-2.62-4.38-2.62-8,0-3.27.91-5.79,2.71-7.47,1.83-1.59,4.28-2.4,7.29-2.4,3.2,0,5.61.86,7.34,2.58,1.68,1.92,2.53,4.38,2.53,7.3m-39.45-9.87h6.65c-.03.06-.06.12-.09.19-1.57,2.88-2.33,6.01-2.33,9.56,0,7.58,2.36,13.37,7.21,17.71,4.71,4.34,10.82,6.54,18.16,6.54,3.68,0,6.97-.54,10.05-1.65,2.92-.97,5.54-2.57,7.97-4.88,2.27-2.01,4.08-4.53,5.54-7.71,1.28-2.82,1.93-6.19,1.93-10.01,0-3.56-.76-6.69-2.33-9.56l-.06-.1s-.04-.06-.07-.09h6.18v-14.01h-58.79v14.01Z"/>
        <path class="cls-2" d="m456.47,17.78c3.82,1.19,8.56,1.77,14.5,1.77h22.76V6.29h-21.77c-5.19,0-9.07-.51-11.91-1.57-3-.96-5.24-2.27-6.85-4.01l-.67-.72-7.66,10.78.48.48c3.19,3.19,6.94,5.39,11.12,6.53"/>
      </g>
      <polygon class="cls-2" points="524 32.1 524 7.66 508.51 7.66 508.51 71.04 524 71.04 524 45.73 539.39 45.73 539.39 32.1 524 32.1"/>
      <path class="cls-1" d="m422.49,37.41c-3.07-2.95-6.72-5.62-10.89-7.96-3.25-1.5-6.25-2.63-9.14-3.44,1.45-5.1,2.16-10.12,2.16-15.32v-4.15h-15.74v3.9c0,5.55-.9,10.54-2.66,14.82-1.83,4.29-4.28,7.92-7.26,10.78-3.22,3.09-6.89,5.5-10.95,7.17-4.35,1.99-8.82,3.31-13.69,4.03l-.68.1v13.97l.87-.08c8.31-.78,15.58-2.64,21.59-5.53,6.07-2.72,11.34-6.41,15.65-10.97,1.74-1.87,3.26-3.75,4.61-5.72,2.62.63,5.06,1.45,7.21,2.41,2.96,1.6,5.65,3.46,7.79,5.36,2.16,1.92,3.86,3.98,5.02,6.07,1.05,2.21,1.67,4.26,1.78,5.86v4.64h14.5v-3.9c0-3.73-.94-7.64-2.81-11.65-1.92-3.84-4.32-7.23-7.36-10.4"/>
      <polygon class="cls-1" points="463.93 74.79 463.93 88.66 508.51 88.66 508.51 119.69 524.13 119.69 524.13 74.79 463.93 74.79"/>
      <path class="cls-5" d="m92.35,49.8h17.58v13.73h-17.58v43.21l-15.86-.12V14.23h15.86v35.57Zm-25.63-30.8v23.81c-.28,7.5-.84,15.93-1.98,21.87-1.28,5.93-3.12,11.33-5.67,15.86-2.69,4.69-6.08,8.64-10.19,11.76-4.25,3.41-9.49,5.95-15.59,7.92v-15.15c2.84-1.41,5.24-3.1,7.51-5.1,2.12-1.82,3.96-4.24,5.38-7.37,1.42-2.96,2.41-6.66,3.26-11.18.7-4.26,1.13-11.4,1.13-17.9v-10.35h-13.6v6.8c-.28,14.99-3.69,28.38-10.2,36.45-6.66,8.21-15.58,13.47-26.77,15.73v-14.17c2.82-.98,5.52-2.26,8.07-3.83,2.4-1.41,4.54-3.54,6.52-6.09,1.85-2.54,3.39-5.96,4.53-10.06,1.14-3.95,1.7-10.95,1.7-17.34v-7.49H0v-14.18h66.72Z"/>
      <rect class="cls-4" x="116.53" y="93.14" width="96.75" height="13.6"/>
      <rect class="cls-3" x="222.63" y="93.14" width="96.77" height="13.6"/>
      <path class="cls-4" d="m202.86,55.52l2.37,13.67c-2.27,1.83-4.99,3.6-8.3,5.17-3.44,1.75-28.7,14.88-54.54,6.89-3.27-1.02-6.86-3.71-8.99-6.07-2.26-2.22-3.62-5.14-4.25-8.75l-3.27-18.88,53.58-9.28-1.89-10.87-53.44,9.26-2.37-13.66,69.49-12.04,6.5,37.52-53.44,9.25,1.05,6.04c.25,1.39,2.05,3.23,3.6,3.99,11.43,5.76,34.86-2.61,38.12-3.75,3.25-1.14,6.18-2.52,8.94-4,2.65-1.32,4.99-2.71,6.85-4.47"/>
      <path class="cls-3" d="m306.14,66.37l-1.98,13.73c-2.73,1.03-5.86,1.87-9.5,2.35-3.81.6-31.89,5.25-53.99-10.34-2.8-1.97-5.37-5.67-6.66-8.57-1.47-2.77-1.87-5.98-1.33-9.63l2.73-18.95,53.82,7.74,1.57-10.9-53.68-7.74,1.99-13.73,69.8,10.05-5.44,37.69-53.67-7.74-.87,6.07c-.21,1.39.95,3.69,2.18,4.92,9.08,9,33.96,8.31,37.41,8.23,3.44-.09,6.65-.48,9.74-1.05,2.93-.42,5.59-1.04,7.9-2.13"/>
    </g>
  </g>
</svg>