<?xml version="1.0" encoding="utf-8"?>
<!-- Generator: Adobe Illustrator 27.9.4, SVG Export Plug-In . SVG Version: 9.03 Build 54784)  -->
<svg version="1.1" id="_레이어_2" xmlns="http://www.w3.org/2000/svg" xmlns:xlink="http://www.w3.org/1999/xlink" x="0px"
	 y="0px" viewBox="0 0 66.7 45.4" style="enable-background:new 0 0 66.7 45.4;" xml:space="preserve">
<style type="text/css">
	.st0{fill:#FABE00;}
	.st1{fill:#1D7CB2;}
	.st2{fill:#E72441;}
</style>
<g id="_레이어_1-2">
	<g>
		<path class="st0" d="M3.9,37.2h22.8c2.2,0,3.9,1.8,3.9,3.9l0,0c0,2.2-1.8,3.9-3.9,3.9H3.9C1.7,45,0,43.2,0,41.1l0,0
			C0,39,1.8,37.2,3.9,37.2z"/>
		<path class="st1" d="M30.7,16.3L30.7,16.3c0-2.2-1.8-3.9-3.9-3.9H10.1C4.5,12.3,0,16.9,0,22.4l0,0v0.2c0,5.6,4.5,10.1,10.1,10.1
			h16.6c2.2,0,3.9-1.8,3.9-3.9l0,0c0-2.2-1.8-3.9-3.9-3.9H10.2c-1.3,0-2.3-1-2.3-2.3l0,0c0-1.3,1-2.3,2.3-2.3h16.6
			C28.9,20.2,30.7,18.5,30.7,16.3L30.7,16.3z"/>
		<path class="st2" d="M55.7,26.1L65.8,39c1.3,1.7,1,4.2-0.7,5.5l0,0c-1.7,1.3-4.2,1-5.5-0.7L49.5,31c-1.3-1.7-1-4.2,0.7-5.5l0,0
			C51.8,24.1,54.3,24.4,55.7,26.1z"/>
		<path class="st1" d="M62.4,12.3H44.1V3.9c0-2.2-1.8-3.9-3.9-3.9l0,0c-2.2,0-3.9,1.8-3.9,3.9V41c0,2.2,1.8,3.9,3.9,3.9l0,0
			c2.2,0,3.9-1.8,3.9-3.9V20.2h18.3c2.2,0,3.9-1.8,3.9-3.9l0,0C66.3,14.1,64.6,12.3,62.4,12.3L62.4,12.3z"/>
	</g>
</g>
</svg>
