<?xml version="1.0" encoding="UTF-8"?>
<svg id="_레이어_2" data-name="레이어 2" xmlns="http://www.w3.org/2000/svg" xmlns:xlink="http://www.w3.org/1999/xlink" viewBox="0 0 608.69 249">
  <defs>
    <style>
      .cls-1 {
        fill: #ffec51;
      }

      .cls-1, .cls-2, .cls-3, .cls-4, .cls-5, .cls-6 {
        stroke-width: 0px;
      }

      .cls-2 {
        fill: #744b9a;
      }

      .cls-3 {
        fill: none;
      }

      .cls-7 {
        clip-path: url(#clippath-1);
      }

      .cls-4 {
        fill: #29b5b2;
      }

      .cls-5 {
        fill: #fff;
      }

      .cls-6 {
        fill: #fabe00;
      }

      .cls-8 {
        clip-path: url(#clippath);
      }
    </style>
    <clipPath id="clippath">
      <polygon class="cls-3" points="151.67 166.85 166 166.85 180.33 166.85 180.33 158.42 180.33 149.98 166 149.98 151.67 149.98 151.67 158.42 151.67 166.85"/>
    </clipPath>
    <clipPath id="clippath-1">
      <polygon class="cls-3" points="151.87 149.23 165.01 149.23 178.16 149.23 178.16 139.69 178.16 130.15 165.01 130.15 151.87 130.15 151.87 139.69 151.87 149.23"/>
    </clipPath>
  </defs>
  <g id="_레이어_1-2" data-name="레이어 1">
    <g>
      <path class="cls-4" d="m577.26,249H31.43c-8.68,0-16.54-3.52-22.22-9.21S0,226.25,0,217.57V31.43C0,22.75,3.52,14.89,9.21,9.21S22.75,0,31.43,0h545.83c8.68,0,16.54,3.52,22.22,9.21,5.69,5.69,9.21,13.55,9.21,22.22v186.14c0,8.68-3.52,16.54-9.21,22.22-5.69,5.69-13.55,9.21-22.22,9.21Z"/>
      <path class="cls-2" d="m54.61,132.03c0,21.3,8.64,40.59,22.6,54.55,13.96,13.96,33.25,22.6,54.55,22.6s40.59-8.64,54.55-22.6c13.96-13.96,22.6-33.25,22.6-54.55s-8.64-40.59-22.6-54.55c-13.96-13.96-33.25-22.6-54.55-22.6v-25.38l-22.11,19.45-22.11,19.45c-10.5,8.57-18.74,18.38-24.34,29.1s-8.59,22.33-8.59,34.52"/>
      <path class="cls-1" d="m87.02,90.73c-.24-.23-.36-.53-.37-.84s.1-.63.33-.89c.23-.25.53-.39.84-.41s.62.08.86.31l2.18,2.13,2.18,2.13c.24.22.37.53.37.84s-.1.63-.33.88c-.23.25-.53.39-.84.41s-.62-.08-.86-.3l-2.18-2.13-2.18-2.13Z"/>
      <path class="cls-1" d="m84.95,97.71c-.33-.04-.61-.21-.79-.46s-.29-.57-.25-.91c.04-.34.21-.63.45-.83s.55-.29.87-.25l2.36.38,2.36.38c.33.04.61.21.79.46s.28.57.24.91c-.04.34-.21.63-.44.82s-.55.29-.88.25l-2.36-.38-2.36-.38Z"/>
      <path class="cls-1" d="m93.55,87.49c-.06-.32.02-.64.19-.9s.46-.45.79-.52c.34-.07.66,0,.92.17s.45.43.51.76l.37,2.36.37,2.36c.06.32-.02.64-.2.9s-.46.45-.79.52c-.33.07-.66,0-.92-.17s-.45-.43-.51-.75l-.37-2.36-.37-2.36Z"/>
      <path class="cls-1" d="m117.19,104.3h4.06v3.17h-4.06v9.97h-1.83s-1.83-.03-1.83-.03v-21.31h3.66v8.21Zm-5.91-7.11v5.49c-.03.86-.08,1.78-.15,2.66s-.17,1.7-.3,2.39c-.15.68-.33,1.34-.54,1.95s-.47,1.19-.76,1.71c-.31.54-.66,1.04-1.05,1.49s-.82.86-1.3,1.22c-.49.39-1.04.74-1.64,1.04s-1.25.56-1.96.79v-3.5c.33-.16.63-.34.92-.54s.56-.41.82-.64c.24-.21.47-.45.68-.74s.4-.6.56-.96c.16-.34.3-.73.43-1.15s.23-.9.33-1.42c.08-.49.15-1.15.19-1.87s.07-1.51.07-2.26v-2.39h-3.14v1.57c-.03,1.73-.24,3.37-.64,4.8s-.96,2.67-1.72,3.61c-.77.95-1.67,1.72-2.7,2.33s-2.19,1.04-3.48,1.3v-3.27c.33-.11.64-.24.95-.39s.61-.31.91-.49c.28-.16.54-.37.79-.6s.49-.51.72-.8c.21-.29.41-.64.58-1.03s.33-.82.46-1.3c.13-.46.23-1.09.29-1.79s.1-1.47.1-2.21v-1.73h-4.8v-3.27h15.39Z"/>
      <polygon class="cls-1" points="145.08 117.44 133.92 117.44 122.76 117.44 122.76 115.87 122.76 114.3 133.92 114.3 145.08 114.3 145.08 115.87 145.08 117.44"/>
      <polygon class="cls-1" points="169.57 117.44 158.4 117.44 147.24 117.44 147.24 115.87 147.24 114.3 158.4 114.3 169.57 114.3 169.57 115.87 169.57 117.44"/>
      <path class="cls-1" d="m142.68,105.62l.27,1.58.27,1.58c-.26.21-.55.42-.87.62s-.67.39-1.05.57c-.4.2-2.05,1.06-4.35,1.64s-5.25.87-8.23-.05c-.38-.12-.77-.33-1.14-.58s-.69-.54-.94-.82c-.26-.26-.47-.55-.63-.89s-.28-.71-.35-1.13l-.38-2.18-.38-2.18,6.18-1.07,6.18-1.07-.22-1.25-.22-1.25-6.16,1.07-6.16,1.07-.27-1.58-.27-1.58,8.02-1.39,8.02-1.39.75,4.33.75,4.33-6.16,1.07-6.16,1.07.12.7.12.7c.03.16.15.35.3.51s.35.32.53.41c1.32.66,3.33.51,5.1.16s3.31-.9,3.69-1.03c.38-.13.73-.28,1.07-.43s.67-.32.99-.49c.31-.15.59-.31.86-.48s.51-.35.72-.55"/>
      <path class="cls-1" d="m166.51,108.12l-.23,1.58-.23,1.58c-.31.12-.65.23-1.02.32s-.75.17-1.18.22c-.44.07-2.28.37-4.65.21s-5.26-.8-7.81-2.59c-.32-.23-.63-.55-.9-.91s-.49-.74-.64-1.07c-.17-.32-.28-.66-.33-1.04s-.04-.77.02-1.19l.32-2.19.32-2.19,6.21.89,6.21.89.18-1.26.18-1.26-6.19-.89-6.19-.89.23-1.58.23-1.58,8.05,1.16,8.05,1.16-.63,4.35-.63,4.35-6.19-.89-6.19-.89-.1.7-.1.7c-.02.16.03.37.13.58s.23.41.38.55c1.05,1.04,3.01,1.52,4.8,1.74s3.43.17,3.83.16c.4,0,.78-.04,1.15-.08s.74-.1,1.09-.16c.34-.05.66-.11.97-.19s.59-.18.86-.3"/>
      <g>
        <path class="cls-5" d="m333.29,138.22c0,1.35-.14,2.63-.43,3.84s-.71,2.35-1.28,3.42c-.57,1.07-1.25,2.05-2.05,2.95s-1.71,1.71-2.74,2.44c-1.03.73-2.15,1.38-3.37,1.94s-2.53,1.04-3.93,1.43c-1.41.39-2.88.69-4.42.88s-3.15.29-4.83.29-3.16-.09-4.71-.27-3.06-.46-4.54-.82c-1.49-.37-2.9-.85-4.23-1.45s-2.59-1.32-3.76-2.16-2.23-1.79-3.17-2.87-1.76-2.27-2.46-3.58c-.7-1.31-1.23-2.77-1.58-4.39s-.53-3.38-.53-5.3h10.95c0,1.19.1,2.27.3,3.23s.51,1.82.91,2.56c.41.74.88,1.41,1.41,2s1.13,1.1,1.79,1.53c.66.43,1.37.8,2.12,1.09s1.54.53,2.38.69c.84.16,1.68.28,2.53.37s1.71.12,2.58.12c1.87,0,3.54-.18,5.02-.53s2.77-.88,3.86-1.58c1.09-.7,1.92-1.53,2.46-2.49s.82-2.05.82-3.27c0-.59-.06-1.16-.17-1.7s-.29-1.05-.52-1.54c-.23-.49-.54-.95-.92-1.39s-.85-.85-1.39-1.25-1.17-.77-1.89-1.15-1.52-.73-2.41-1.09c-.89-.35-1.89-.71-2.98-1.07s-2.29-.74-3.59-1.12h-.08c-1.6-.43-3.12-.88-4.57-1.35s-2.84-.95-4.15-1.45c-1.31-.5-2.53-1.05-3.65-1.65s-2.15-1.25-3.08-1.96c-.93-.7-1.76-1.47-2.48-2.3s-1.34-1.73-1.85-2.69c-.51-.96-.9-2.02-1.16-3.17s-.39-2.41-.39-3.76c0-1.27.14-2.49.42-3.65s.69-2.27,1.25-3.33,1.22-2.03,2.01-2.93,1.68-1.72,2.7-2.46c1.01-.74,2.12-1.41,3.33-1.99s2.5-1.08,3.89-1.5c1.39-.42,2.86-.73,4.39-.94s3.14-.31,4.82-.31,3.43.13,5.02.39,3.09.64,4.51,1.16c1.42.51,2.73,1.13,3.93,1.84s2.3,1.52,3.29,2.42c.99.91,1.86,1.9,2.63,2.99s1.42,2.27,1.96,3.54c.54,1.27.95,2.61,1.22,4.02s.41,2.88.41,4.42h-10.87c0-1.87-.27-3.51-.81-4.94s-1.35-2.63-2.43-3.62c-1.08-.99-2.36-1.73-3.83-2.22s-3.14-.74-5.01-.74c-1.97,0-3.7.18-5.19.55s-2.73.91-3.73,1.64c-1,.73-1.75,1.55-2.25,2.47s-.75,1.93-.75,3.04c0,1.16.27,2.21.81,3.14s1.35,1.75,2.43,2.45c1.08.7,2.48,1.39,4.2,2.05s3.75,1.3,6.1,1.93c1.76.49,3.41,1,4.97,1.53s3.01,1.09,4.36,1.67c1.35.58,2.6,1.21,3.73,1.88s2.16,1.38,3.08,2.14c.92.76,1.73,1.57,2.42,2.43s1.28,1.78,1.75,2.76c.47.97.83,2.02,1.06,3.14s.36,2.32.36,3.59Z"/>
        <path class="cls-5" d="m388.86,102.53h-20.04v52.08h-10.87v-52.08h-20.04v-9.25h50.94v9.25Z"/>
        <path class="cls-5" d="m437.29,154.61h-39.91v-61.33h39.75v9.25h-28.88v15.9h25.8v9.25h-25.8v17.68h29.04v9.25Z"/>
        <path class="cls-5" d="m492.29,112.42c0,1.43-.12,2.8-.35,4.11s-.59,2.54-1.06,3.72c-.47,1.18-1.07,2.27-1.78,3.28s-1.54,1.93-2.48,2.77c-.95.84-2.01,1.58-3.2,2.23s-2.48,1.2-3.9,1.66c-1.42.46-2.95.8-4.59,1.03s-3.4.34-5.26.34h-12.17v23.04h-10.87v-61.33h23.04c1.87,0,3.62.11,5.26.34s3.17.57,4.59,1.03c1.42.46,2.72,1.02,3.9,1.66s2.25,1.39,3.2,2.23c.95.84,1.77,1.76,2.48,2.77s1.3,2.1,1.78,3.27c.47,1.18.83,2.42,1.06,3.72s.35,2.67.35,4.11Zm-10.87,0c0-.68-.06-1.33-.17-1.98s-.29-1.27-.52-1.88c-.23-.61-.52-1.18-.87-1.7s-.76-1.01-1.24-1.46-1.01-.84-1.62-1.2-1.28-.66-2.03-.91c-.74-.26-1.56-.45-2.44-.58s-1.84-.19-2.87-.19h-12.17v19.79h12.17c1.03,0,1.98-.06,2.87-.19s1.7-.32,2.44-.58c.74-.26,1.42-.56,2.03-.91s1.15-.75,1.62-1.2c.47-.45.89-.93,1.24-1.46s.64-1.1.87-1.7c.23-.61.4-1.23.52-1.88s.17-1.3.17-1.98Z"/>
        <path class="cls-5" d="m542.34,136.84c0,1.51-.13,2.94-.4,4.27s-.66,2.57-1.19,3.72c-.53,1.15-1.16,2.2-1.89,3.16s-1.56,1.83-2.49,2.6c-.93.77-1.95,1.45-3.06,2.04s-2.31,1.08-3.59,1.49c-1.28.41-2.62.71-4.01.91s-2.82.3-4.31.3c-1.38,0-2.74-.1-4.09-.29s-2.67-.49-3.98-.88c-1.31-.39-2.55-.89-3.71-1.49s-2.25-1.31-3.26-2.12c-1.01-.81-1.93-1.73-2.75-2.77s-1.54-2.18-2.16-3.44c-.62-1.26-1.09-2.63-1.4-4.13s-.47-3.11-.47-4.84h10.87c0,1.76.25,3.3.75,4.64s1.25,2.45,2.25,3.36c1,.91,2.16,1.59,3.49,2.04s2.81.68,4.46.68,3.01-.19,4.25-.57,2.3-.95,3.17-1.7c.88-.76,1.54-1.7,1.98-2.84s.66-2.46.66-3.98c0-1.62-.27-3.03-.8-4.21s-1.34-2.15-2.4-2.89c-1.07-.74-2.32-1.3-3.74-1.67s-3.03-.56-4.82-.56h-7.06v-9.25h7.06c1.78,0,3.34-.18,4.67-.55s2.44-.91,3.32-1.64c.88-.73,1.54-1.57,1.98-2.51s.66-2,.66-3.16c0-1.32-.18-2.52-.55-3.58s-.91-1.99-1.64-2.79c-.73-.8-1.68-1.4-2.86-1.79s-2.58-.6-4.2-.6c-1.41,0-2.69.2-3.85.6s-2.2,1-3.12,1.79c-.92.8-1.61,1.84-2.07,3.11s-.69,2.8-.69,4.55h-10.87c0-1.49.13-2.9.39-4.24s.64-2.6,1.16-3.79c.51-1.19,1.13-2.29,1.84-3.31s1.53-1.94,2.45-2.78c.92-.84,1.92-1.58,3.01-2.22s2.26-1.19,3.52-1.63,2.57-.78,3.94-1,2.8-.33,4.29-.33,2.96.1,4.34.3,2.69.51,3.94.91c1.24.41,2.4.9,3.46,1.49s2.03,1.27,2.91,2.04c.88.77,1.66,1.63,2.33,2.58s1.25,1.98,1.72,3.1c.47,1.12.83,2.33,1.06,3.62s.36,2.67.36,4.13c0,1.14-.13,2.25-.4,3.36s-.66,2.19-1.19,3.25c-.53,1.07-1.21,2.07-2.04,2.99s-1.82,1.78-2.95,2.57c1.43.78,2.65,1.68,3.65,2.68s1.78,2.11,2.35,3.33.99,2.49,1.28,3.81.43,2.7.43,4.14Z"/>
      </g>
      <path class="cls-6" d="m103.52,143.84c0,.65-.05,1.25-.16,1.82s-.27,1.1-.49,1.59c-.24.52-.51.99-.82,1.43s-.65.84-1.04,1.2c-.39.37-.8.69-1.24.97s-.92.5-1.44.68c-.54.22-1.09.37-1.66.46s-1.15.14-1.76.14-1.22-.04-1.79-.14-1.11-.25-1.63-.46c-.54-.17-1.04-.4-1.49-.68s-.86-.6-1.23-.97c-.39-.37-.73-.77-1.03-1.2s-.55-.91-.74-1.43c-.22-.5-.38-1.03-.49-1.59s-.16-1.17-.16-1.82c0-.61.05-1.17.17-1.7s.29-1.03.52-1.5c.04-.09.09-.18.14-.29s.1-.21.17-.32h-2.46v-4.32h19.93v4.32h-2.38l.17.3.17.3c.24.48.42.97.54,1.5s.19,1.09.19,1.7m-17.77-12.45l1.17-1.64,1.17-1.64c.3.32.66.61,1.08.85s.89.45,1.43.62c.52.19,1.12.33,1.83.43s1.5.14,2.41.14h7.31v4.06h-7.65c-.95,0-1.85-.04-2.68-.14s-1.6-.25-2.29-.46c-.71-.19-1.38-.48-2.01-.84s-1.21-.82-1.75-1.36m12.88,12.49c0-.56-.09-1.08-.25-1.55s-.4-.88-.7-1.22c-.32-.35-.71-.62-1.17-.8s-.99-.28-1.59-.28c-.56,0-1.07.09-1.52.25s-.85.42-1.2.74c-.35.35-.6.76-.78,1.23s-.26,1.02-.26,1.62c0,.65.08,1.22.24,1.73s.41.95.76,1.34c.32.39.7.68,1.14.88s.93.29,1.5.29c.63,0,1.18-.1,1.66-.29s.89-.49,1.24-.88c.3-.37.54-.81.7-1.32s.25-1.1.25-1.75m14.48-4.8h5.36v4.28h-5.36v11.62h-4.88v-24.85h4.88v8.95Z"/>
      <path class="cls-6" d="m145.2,163.76v4.11c-.39.13-.81.26-1.26.39s-.92.26-1.42.39c-.52.09-1.04.17-1.56.25s-1.05.16-1.59.22c-.56.06-1.24.12-1.92.16s-1.35.08-1.91.1c-.58,0-1.16-.02-1.72-.06s-1.11-.09-1.65-.16c-.56-.09-1.09-.18-1.6-.29s-.99-.23-1.47-.36c-.5-.17-.96-.36-1.39-.56s-.82-.42-1.16-.65c-.35-.26-.66-.55-.94-.86s-.51-.65-.71-.99c-.22-.37-.38-1-.49-1.67s-.16-1.37-.16-1.89v-4.06h14.85v-2.72h-14.81v-4.15h19.74v10.93h-14.76v1.35c0,.3.13.57.39.81s.66.44,1.2.62c.52.17,1.11.31,1.78.42s1.4.18,2.2.23c.78.02,1.7.01,2.66-.03s1.95-.12,2.85-.23c.89-.13,1.73-.3,2.53-.52s1.57-.48,2.31-.78"/>
      <path class="cls-5" d="m113.32,160.86v4.32c-.87.63-1.96,1.16-3.12,1.59s-2.4.78-3.58,1.04c-1.18.22-2.5.33-3.8.35s-2.56-.07-3.6-.26c-1.09-.22-2.08-.55-2.99-1.01s-1.72-1.03-2.46-1.72c-.74-.69-1.3-1.53-1.67-2.52s-.56-2.11-.56-3.36v-3.83h4.93v4.43c0,.52.1.98.31,1.39s.52.77.96,1.07c.41.35.97.62,1.61.82s1.36.35,2.1.43c.7.09,1.56.1,2.5.03s1.93-.21,2.89-.42c.94-.19,2.03-.49,3.16-.88s2.28-.89,3.32-1.5"/>
      <path class="cls-5" d="m138.71,144.46c.43-.56.79-1.11,1.06-1.66s.45-1.1.54-1.66c.09-.54.15-1.15.19-1.81s.06-1.39.06-2.17v-2.82h-17.79v-4.19h22.59v6.72c-.02.43-.03.85-.04,1.26s0,.79,0,1.16c-.02.39-.04.76-.07,1.1s-.06.67-.1.97c-.04.32-.11.64-.19.93s-.18.58-.29.84c-.11.26-.24.5-.38.72s-.31.43-.48.62h5.36v4.15h-29.52v-4.15h19.06Z"/>
      <g class="cls-8">
        <polygon class="cls-5" points="152 154.74 157.72 154.74 163.43 154.74 163.43 160.63 163.43 166.52 166.04 166.52 168.65 166.52 168.65 160.63 168.65 154.74 174.32 154.74 179.99 154.74 179.99 152.53 179.99 150.32 166 150.32 152 150.32 152 152.53 152 154.74"/>
      </g>
      <g class="cls-7">
        <path class="cls-6" d="m174.52,140.49c-.5-.48-1.04-.93-1.63-1.36s-1.22-.84-1.9-1.22c-.53-.24-1.03-.46-1.52-.64s-.97-.34-1.44-.47c.24-.83.41-1.65.53-2.47s.17-1.65.17-2.5v-1.34h-5.1v1.26c0,.9-.07,1.75-.22,2.56s-.36,1.55-.65,2.25c-.3.7-.64,1.34-1.04,1.92s-.83,1.11-1.32,1.57c-.52.5-1.08.95-1.67,1.34s-1.22.72-1.88.99c-.7.32-1.42.59-2.16.81s-1.49.38-2.28.5l-.11.02-.11.02v4.53h.14s.14-.03.14-.03c1.35-.13,2.61-.34,3.78-.64s2.25-.68,3.22-1.15c.98-.44,1.9-.96,2.75-1.56s1.62-1.26,2.32-2c.28-.3.55-.61.8-.92s.48-.62.7-.94c.43.1.84.22,1.23.35s.76.27,1.11.43c.48.26.94.54,1.36.83s.82.6,1.16.9c.35.31.66.63.94.96s.5.67.69,1.01c.17.36.31.7.4,1.03s.16.62.18.88v1.5h4.7v-1.26c0-.6-.08-1.22-.23-1.85s-.38-1.27-.68-1.92c-.31-.62-.66-1.21-1.06-1.77s-.84-1.09-1.33-1.6"/>
      </g>
    </g>
  </g>
</svg>